<svg width="24" height="24" viewBox="0 0 24 24" xmlns="http://www.w3.org/2000/svg" fill="currentColor" id="icon-linkedin-1"><g clip-path="url(#clip0_0_4)"><path d="M23.9938 24.0001V23.9991H23.9998V15.1971C23.9998 10.8911 23.0728 7.5741 18.0388 7.5741C15.6188 7.5741 13.9948 8.9021 13.3318 10.1611H13.2618V7.9761H8.48877V23.9991H13.4588V16.0651C13.4588 13.9761 13.8548 11.9561 16.4418 11.9561C18.9908 11.9561 19.0288 14.3401 19.0288 16.1991V24.0001H23.9938Z"/><path d="M0.395996 7.97693H5.372V23.9999H0.395996V7.97693Z"/><path d="M2.882 0C1.291 0 0 1.291 0 2.882C0 4.473 1.291 5.791 2.882 5.791C4.473 5.791 5.764 4.473 5.764 2.882C5.763 1.291 4.472 0 2.882 0V0Z"/></g><defs><clipPath id="clip0_0_4"><rect width="24" height="24"/></clipPath></defs></svg>