<svg width="16" height="16" viewBox="0 0 16 16" xmlns="http://www.w3.org/2000/svg" fill="currentColor" id="icon-linkedin-1"><g clip-path="url(#clip0_0_44)"><path d="M15.9959 16V15.9994H15.9999V10.1314C15.9999 7.26071 15.3819 5.04938 12.0259 5.04938C10.4125 5.04938 9.32985 5.93471 8.88785 6.77404H8.84118V5.31738H5.65918V15.9994H8.97252V10.71C8.97252 9.31738 9.23652 7.97071 10.9612 7.97071C12.6605 7.97071 12.6859 9.56004 12.6859 10.7994V16H15.9959Z"/><path d="M0.26416 5.31796H3.58149V16H0.26416V5.31796Z"/><path d="M1.92133 0C0.860667 0 0 0.860667 0 1.92133C0 2.982 0.860667 3.86067 1.92133 3.86067C2.982 3.86067 3.84267 2.982 3.84267 1.92133C3.842 0.860667 2.98133 0 1.92133 0V0Z"/></g><defs><clipPath id="clip0_0_44"><rect width="16" height="16"/></clipPath></defs></svg>