<svg xmlns="http://www.w3.org/2000/svg" aria-hidden="true" style="position:absolute;width:0;height:0;overflow:hidden"><defs><symbol id="icon-instagram-2-16-396" viewBox="0 0 24 24"><g clip-path="url(#clip0_0_4)"><path d="M23.976 7.056c-.056-1.275-.262-2.152-.557-2.912a5.86 5.86 0 0 0-1.388-2.128A5.9 5.9 0 0 0 19.907.633C19.143.338 18.27.13 16.995.075 15.711.015 15.303 0 12.045 0c-3.26 0-3.667.014-4.947.07-1.275.057-2.152.263-2.911.558a5.86 5.86 0 0 0-2.129 1.388A5.9 5.9 0 0 0 .675 4.14C.38 4.904.173 5.776.117 7.05.057 8.336.042 8.744.042 12.002c0 3.259.014 3.667.07 4.947C.17 18.224.375 19.1.67 19.86a5.9 5.9 0 0 0 1.388 2.129c.6.61 1.327 1.083 2.124 1.383.764.295 1.636.501 2.911.558 1.28.056 1.688.07 4.947.07 3.258 0 3.666-.014 4.946-.07 1.275-.057 2.152-.263 2.911-.558a6.14 6.14 0 0 0 3.512-3.512c.295-.764.502-1.636.558-2.911.056-1.28.07-1.688.07-4.947 0-3.258-.004-3.666-.06-4.946m-2.16 9.799c-.053 1.172-.25 1.805-.413 2.227a3.98 3.98 0 0 1-2.28 2.278c-.421.165-1.059.361-2.226.413-1.266.056-1.646.07-4.848.07s-3.587-.014-4.848-.07c-1.172-.052-1.805-.248-2.227-.413a3.7 3.7 0 0 1-1.378-.895 3.7 3.7 0 0 1-.896-1.378c-.164-.422-.36-1.06-.412-2.227-.057-1.266-.07-1.646-.07-4.848s.013-3.587.07-4.848c.051-1.172.248-1.805.412-2.227.193-.52.497-.994.9-1.379a3.7 3.7 0 0 1 1.379-.895c.422-.164 1.06-.36 2.227-.413 1.266-.056 1.646-.07 4.848-.07 3.207 0 3.586.014 4.848.07 1.172.052 1.805.249 2.227.413.52.192.993.497 1.378.895.398.39.703.858.895 1.379.165.422.361 1.06.413 2.227.056 1.266.07 1.645.07 4.848s-.014 3.577-.07 4.843"/><path d="M12.045 5.837a6.167 6.167 0 0 0-6.166 6.165 6.167 6.167 0 0 0 6.166 6.166 6.167 6.167 0 0 0 6.165-6.166 6.167 6.167 0 0 0-6.165-6.165m0 10.165a4 4 0 1 1 .001-8 4 4 0 0 1-.001 8M19.893 5.593a1.44 1.44 0 1 1-2.879 0 1.44 1.44 0 0 1 2.879 0"/></g><defs><clipPath id="clip0_0_4"><path d="M0 0h24v24H0z"/></clipPath></defs></symbol><symbol id="icon-linkedin-1-16-412" viewBox="0 0 24 24"><g clip-path="url(#clip0_0_4)"><path d="M23.994 24H24v-8.803c0-4.306-.927-7.623-5.961-7.623-2.42 0-4.044 1.328-4.707 2.587h-.07V7.976H8.489V24h4.97v-7.934c0-2.089.396-4.109 2.983-4.109 2.549 0 2.587 2.384 2.587 4.243V24zM.396 7.977h4.976V24H.396zM2.882 0A2.883 2.883 0 0 0 0 2.882c0 1.591 1.291 2.909 2.882 2.909s2.882-1.318 2.882-2.909A2.884 2.884 0 0 0 2.882 0"/></g><defs><clipPath id="clip0_0_4"><path d="M0 0h24v24H0z"/></clipPath></defs></symbol><symbol id="icon-instagram-2-0-2009" viewBox="0 0 16 16"><g clip-path="url(#clip0_0_28)"><path d="M15.985 4.704c-.038-.85-.175-1.435-.372-1.941a3.9 3.9 0 0 0-.926-1.419 3.9 3.9 0 0 0-1.415-.922C12.762.225 12.18.088 11.33.05 10.474.01 10.202 0 8.03 0S5.586.01 4.732.047c-.85.037-1.434.175-1.94.372a3.9 3.9 0 0 0-1.42.925A3.9 3.9 0 0 0 .45 2.76C.253 3.27.116 3.85.078 4.7c-.04.857-.05 1.13-.05 3.302s.01 2.444.047 3.297c.038.85.175 1.435.372 1.941.203.538.519 1.019.925 1.42.4.405.885.721 1.416.921.51.197 1.091.335 1.941.372.853.038 1.126.047 3.298.047s2.444-.01 3.297-.047c.85-.037 1.435-.175 1.941-.372a4.1 4.1 0 0 0 2.341-2.34c.197-.51.335-1.092.372-1.942.038-.853.047-1.125.047-3.297s-.003-2.445-.04-3.298m-1.441 6.533c-.035.781-.166 1.203-.275 1.484a2.65 2.65 0 0 1-1.52 1.52c-.28.109-.706.24-1.484.274-.844.038-1.097.047-3.232.047s-2.391-.01-3.232-.047c-.781-.034-1.203-.165-1.485-.275a2.5 2.5 0 0 1-.918-.597 2.5 2.5 0 0 1-.597-.919c-.11-.28-.241-.706-.275-1.484-.038-.844-.047-1.097-.047-3.232s.009-2.391.047-3.232c.034-.781.165-1.203.275-1.485.128-.347.33-.662.6-.919.26-.265.572-.469.919-.597.28-.109.706-.24 1.484-.275.844-.037 1.097-.047 3.232-.047 2.138 0 2.391.01 3.232.047.781.035 1.203.166 1.485.275.347.128.662.332.919.597.265.26.468.572.597.92.109.28.24.706.275 1.484.037.844.047 1.097.047 3.232s-.01 2.385-.047 3.229"/><path d="M8.03 3.891a4.111 4.111 0 0 0 0 8.22 4.111 4.111 0 0 0 0-8.22m0 6.777a2.667 2.667 0 1 1 0-5.333 2.667 2.667 0 0 1 0 5.333M13.262 3.729a.96.96 0 1 1-1.92 0 .96.96 0 0 1 1.92 0"/></g><defs><clipPath id="clip0_0_28"><path d="M0 0h16v16H0z"/></clipPath></defs></symbol><symbol id="icon-facebook-1-0-2033" viewBox="0 0 16 16"><g clip-path="url(#clip0_0_40)"><path d="M10.665 2.657h1.46V.113A19 19 0 0 0 9.997 0C7.891 0 6.45 1.325 6.45 3.76V6H4.125v2.844h2.324V16h2.849V8.845h2.23L11.882 6H9.297V4.04c0-.822.222-1.384 1.367-1.384"/></g><defs><clipPath id="clip0_0_40"><path d="M0 0h16v16H0z"/></clipPath></defs></symbol><symbol id="icon-linkedin-1-0-2044" viewBox="0 0 16 16"><g clip-path="url(#clip0_0_44)"><path d="M15.996 16H16V10.13c0-2.87-.618-5.082-3.974-5.082-1.614 0-2.696.886-3.138 1.725H8.84V5.317H5.66V16h3.314V10.71c0-1.393.264-2.74 1.988-2.74 1.7 0 1.725 1.59 1.725 2.83V16zM.264 5.318h3.317V16H.264zM1.921 0C.861 0 0 .86 0 1.921s.86 1.94 1.921 1.94 1.922-.879 1.922-1.94C3.842.861 2.98 0 1.92 0"/></g><defs><clipPath id="clip0_0_44"><path d="M0 0h16v16H0z"/></clipPath></defs></symbol><symbol id="icon-frame-1-9-1172" viewBox="0 0 18 24"><g clip-path="url(#clip0_0_5)"><path d="M9 12a3 3 0 1 0 0-6 3 3 0 1 0 0 6m0 1.5c-2.003 0-6 1.005-6 3v.75c0 .413.337.75.75.75h10.5c.412 0 .75-.337.75-.75v-.75c0-1.995-3.998-3-6-3"/></g><path stroke-linecap="round" stroke-width="1.25" d="M18.625 3.625v16.75"/><defs><clipPath id="clip0_0_5"><path d="M0 3h18v18H0z"/></clipPath></defs></symbol><symbol id="icon-person-black-18dp-1-9-1139" viewBox="0 0 18 18"><g clip-path="url(#clip0_0_6)"><path d="M9 9a3 3 0 1 0 0-6 3 3 0 1 0 0 6m0 1.5c-2.003 0-6 1.005-6 3v.75c0 .412.337.75.75.75h10.5c.412 0 .75-.338.75-.75v-.75c0-1.995-3.998-3-6-3"/></g><defs><clipPath id="clip0_0_6"><path d="M0 0h18v18H0z"/></clipPath></defs></symbol><symbol id="icon-phone-black-18dp-2-10543" viewBox="0 0 18 24"><g clip-path="url(#clip0_297092_10543)"><path d="m14.726 13.865-1.838-.21a1.44 1.44 0 0 0-1.187.413l-1.331 1.331A10.9 10.9 0 0 1 5.6 10.63l1.34-1.339a1.44 1.44 0 0 0 .412-1.186l-.21-1.824A1.45 1.45 0 0 0 5.702 5H4.45c-.818 0-1.498.68-1.447 1.498.383 6.18 5.326 11.116 11.499 11.5.818.05 1.498-.63 1.498-1.448v-1.252a1.434 1.434 0 0 0-1.274-1.433"/></g><defs><clipPath id="clip0_297092_10543"><path d="M0 0h18v24H0z"/></clipPath></defs></symbol><symbol id="icon-email-black-18dp-2-10546" viewBox="0 0 18 24"><g clip-path="url(#clip0_297092_10546)"><path d="M15 6H3c-.825 0-1.492.675-1.492 1.5l-.008 9c0 .825.675 1.5 1.5 1.5h12c.825 0 1.5-.675 1.5-1.5v-9c0-.825-.675-1.5-1.5-1.5m-.3 3.188-5.302 3.314a.76.76 0 0 1-.796 0L3.3 9.188a.637.637 0 1 1 .675-1.08L9 11.25l5.025-3.142a.637.637 0 1 1 .675 1.08"/></g><defs><clipPath id="clip0_297092_10546"><path d="M0 0h18v24H0z"/></clipPath></defs></symbol><symbol id="icon-close-black-18dp-2-1-24-946" viewBox="0 0 8 8"><g clip-path="url(#clip0_0_4)"><path d="M8 .806 7.194 0 4 3.194.806 0 0 .806 3.194 4 0 7.194.806 8 4 4.806 7.194 8 8 7.194 4.806 4z"/></g><defs><clipPath id="clip0_0_4"><path d="M0 0h8v8H0z"/></clipPath></defs></symbol><symbol id="icon-phone-black-18dp-1-5-5425" viewBox="0 0 18 24"><g clip-path="url(#clip0_302815_5425)"><path d="m14.726 13.865-1.838-.21a1.44 1.44 0 0 0-1.187.413l-1.331 1.331A10.9 10.9 0 0 1 5.6 10.63l1.34-1.339a1.44 1.44 0 0 0 .412-1.186l-.21-1.824A1.45 1.45 0 0 0 5.702 5H4.45c-.818 0-1.498.68-1.447 1.498.383 6.18 5.326 11.116 11.499 11.5.818.05 1.498-.63 1.498-1.448v-1.252a1.434 1.434 0 0 0-1.274-1.433"/></g><defs><clipPath id="clip0_302815_5425"><path d="M0 0h18v24H0z"/></clipPath></defs></symbol><symbol id="icon-email-black-18dp-1-5-5431" viewBox="0 0 18 24"><g clip-path="url(#clip0_302815_5431)"><path d="M15 6H3c-.825 0-1.492.675-1.492 1.5l-.008 9c0 .825.675 1.5 1.5 1.5h12c.825 0 1.5-.675 1.5-1.5v-9c0-.825-.675-1.5-1.5-1.5m-.3 3.188-5.302 3.314a.76.76 0 0 1-.796 0L3.3 9.188a.637.637 0 1 1 .675-1.08L9 11.25l5.025-3.142a.637.637 0 1 1 .675 1.08"/></g><defs><clipPath id="clip0_302815_5431"><path d="M0 0h18v24H0z"/></clipPath></defs></symbol><symbol id="icon-diagram-1-5-5537" viewBox="0 0 64 64"><g clip-path="url(#clip0_302815_5537)"><path d="M29.851 29.93h2.132v9.594h-2.132zM38.38 34.194h2.132v5.33H38.38zM21.322 37.392h2.133v2.132h-2.133zM14.926 36.326h2.132v3.198h-2.133z"/><path d="M3.198 56.582h51.174a3.2 3.2 0 0 0 3.198-3.198v-4.265a3.2 3.2 0 0 0-3.199-3.198h-1.066V19.334l6.056-5.736a3.216 3.216 0 1 0-1.493-1.526l-4.563 4.325v-2.46a3.2 3.2 0 0 0-3.198-3.198H7.463a3.2 3.2 0 0 0-3.199 3.199V45.92H3.198A3.2 3.2 0 0 0 0 49.119v4.265a3.2 3.2 0 0 0 3.198 3.198m57.57-46.909a1.066 1.066 0 1 1 0 2.133 1.066 1.066 0 0 1 0-2.133M6.397 13.938c0-.59.477-1.067 1.066-1.067h42.644c.589 0 1.066.478 1.066 1.067v4.477l-2.132 2.026V16.07c0-.589-.477-1.066-1.066-1.066H9.595c-.589 0-1.066.477-1.066 1.066v26.652c0 .59.477 1.067 1.066 1.067h38.38c.589 0 1.066-.478 1.066-1.067V23.374l2.132-2.02V45.92H6.397zm9.595 13.859a3.198 3.198 0 1 0 2.214 5.497l3.706 1.859c.43.215.953.115 1.273-.245l7.877-8.863 7.744 5.803c.416.311.996.278 1.372-.079l6.73-6.375v16.262H10.662v-24.52H46.91v5.32L39.366 29.6l-7.81-5.855a1.067 1.067 0 0 0-1.435.145l-7.986 8.985-2.986-1.493q.033-.192.041-.387a3.2 3.2 0 0 0-3.198-3.198m1.066 3.198a1.066 1.066 0 1 1-2.132 0 1.066 1.066 0 0 1 2.132 0m6.396 17.058h10.661v1.066c0 .589-.477 1.066-1.066 1.066H24.52a1.066 1.066 0 0 1-1.066-1.066zM2.132 49.12c0-.589.478-1.066 1.066-1.066h18.124v1.066a3.2 3.2 0 0 0 3.198 3.199h8.53a3.2 3.2 0 0 0 3.198-3.199v-1.066h18.124c.588 0 1.066.477 1.066 1.066v4.265c0 .588-.478 1.066-1.067 1.066H3.198a1.066 1.066 0 0 1-1.066-1.066z"/></g><defs><clipPath id="clip0_302815_5537"><path d="M0 0h64v64H0z"/></clipPath></defs></symbol></defs></svg>