<svg aria-hidden="true" style="position: absolute; width: 0; height: 0; overflow: hidden;" version="1.1" xmlns="http://www.w3.org/2000/svg" xmlns:xlink="http://www.w3.org/1999/xlink">
  <defs>
    <symbol id="icon-frame-3-1-2403" viewBox="0 0 24 24">
      <path d="M24 2L0 13.25L7.66994 15.6172L19.5 6.375L10.5017 16.4913L10.509 16.4936L10.5 16.4913V22L14.8013 17.8183L20.2501 19.5L24 2Z"/>
    </symbol>
    <symbol id="icon-instagram-2-16-396" viewBox="0 0 24 24">
      <g clip-path="url(#clip0_0_4)"><path d="M23.9763 7.05607C23.9201 5.78085 23.7139 4.90416 23.4185 4.14449C23.1137 3.33812 22.6449 2.61617 22.0306 2.01602C21.4305 1.40652 20.7038 0.932921 19.9068 0.632936C19.1427 0.337529 18.2706 0.131312 16.9954 0.0750879C15.7106 0.0141019 15.3028 0 12.0443 0C8.78588 0 8.37803 0.0141019 7.09805 0.0703262C5.82284 0.126551 4.94614 0.332951 4.18666 0.628174C3.3801 0.932922 2.65816 1.40176 2.05801 2.01602C1.44852 2.61617 0.975096 3.34288 0.674928 4.13991C0.379521 4.90416 0.173304 5.77609 0.11708 7.0513C0.056094 8.33604 0.0419922 8.7439 0.0419922 12.0023C0.0419922 15.2608 0.056094 15.6686 0.112318 16.9486C0.168543 18.2238 0.374943 19.1005 0.670349 19.8602C0.975096 20.6666 1.44852 21.3885 2.05801 21.9887C2.65816 22.5982 3.38487 23.0718 4.1819 23.3718C4.94614 23.6672 5.81808 23.8734 7.09347 23.9296C8.37326 23.986 8.7813 23.9999 12.0397 23.9999C15.2982 23.9999 15.706 23.986 16.986 23.9296C18.2612 23.8734 19.1379 23.6672 19.8974 23.3718C21.5103 22.7482 22.7855 21.4729 23.4091 19.8602C23.7044 19.096 23.9108 18.2238 23.967 16.9486C24.0232 15.6686 24.0373 15.2608 24.0373 12.0023C24.0373 8.7439 24.0326 8.33604 23.9763 7.05607ZM21.8151 16.8549C21.7634 18.027 21.5666 18.6599 21.4025 19.0819C20.9992 20.1274 20.1694 20.9572 19.1238 21.3605C18.7019 21.5246 18.0644 21.7215 16.8968 21.7729C15.631 21.8293 15.2513 21.8433 12.0491 21.8433C8.84687 21.8433 8.46245 21.8293 7.20116 21.7729C6.02906 21.7215 5.39612 21.5246 4.97416 21.3605C4.45386 21.1682 3.98026 20.8634 3.59584 20.4649C3.19733 20.0758 2.89258 19.6069 2.70028 19.0866C2.53619 18.6647 2.33931 18.027 2.28785 16.8596C2.23144 15.5937 2.21753 15.2139 2.21753 12.0117C2.21753 8.80946 2.23144 8.42505 2.28785 7.16394C2.33931 5.99183 2.53619 5.3589 2.70028 4.93694C2.89258 4.41645 3.19733 3.94303 3.60061 3.55843C3.9896 3.15992 4.45844 2.85517 4.97893 2.66306C5.40088 2.49896 6.03858 2.30209 7.20592 2.25044C8.47179 2.19422 8.85163 2.18011 12.0537 2.18011C15.2606 2.18011 15.6403 2.19422 16.9016 2.25044C18.0737 2.30209 18.7066 2.49896 19.1286 2.66306C19.6489 2.85517 20.1225 3.15992 20.5069 3.55843C20.9054 3.94761 21.2102 4.41645 21.4025 4.93694C21.5666 5.3589 21.7634 5.99641 21.8151 7.16394C21.8713 8.42981 21.8854 8.80946 21.8854 12.0117C21.8854 15.2139 21.8713 15.589 21.8151 16.8549Z"/><path d="M12.0447 5.83704C8.64098 5.83704 5.87939 8.59844 5.87939 12.0023C5.87939 15.4062 8.64098 18.1676 12.0447 18.1676C15.4485 18.1676 18.2099 15.4062 18.2099 12.0023C18.2099 8.59844 15.4485 5.83704 12.0447 5.83704ZM12.0447 16.0016C9.83653 16.0016 8.04541 14.2106 8.04541 12.0023C8.04541 9.79398 9.83653 8.00305 12.0447 8.00305C14.253 8.00305 16.0439 9.79398 16.0439 12.0023C16.0439 14.2106 14.253 16.0016 12.0447 16.0016Z"/><path d="M19.893 5.59336C19.893 6.3882 19.2485 7.03267 18.4535 7.03267C17.6586 7.03267 17.0142 6.3882 17.0142 5.59336C17.0142 4.79835 17.6586 4.15405 18.4535 4.15405C19.2485 4.15405 19.893 4.79835 19.893 5.59336Z"/></g><defs><clipPath id="clip0_0_4"><rect width="24" height="24"/></clipPath></defs>
    </symbol>
    <symbol id="icon-twitter-1-16-402" viewBox="0 0 24 24">
      <path d="M24 4.5585C23.1075 4.95 22.1565 5.2095 21.165 5.3355C22.185 4.7265 22.9635 3.7695 23.3295 2.616C22.3785 3.183 21.3285 3.5835 20.2095 3.807C19.3065 2.8455 18.0195 2.25 16.6155 2.25C13.8915 2.25 11.6985 4.461 11.6985 7.1715C11.6985 7.5615 11.7315 7.9365 11.8125 8.2935C7.722 8.094 4.1025 6.1335 1.671 3.147C1.2465 3.8835 0.9975 4.7265 0.9975 5.634C0.9975 7.338 1.875 8.8485 3.183 9.723C2.3925 9.708 1.617 9.4785 0.96 9.117C0.96 9.132 0.96 9.1515 0.96 9.171C0.96 11.562 2.6655 13.548 4.902 14.0055C4.5015 14.115 4.065 14.1675 3.612 14.1675C3.297 14.1675 2.979 14.1495 2.6805 14.0835C3.318 16.032 5.127 17.4645 7.278 17.511C5.604 18.8205 3.4785 19.6095 1.1775 19.6095C0.774 19.6095 0.387 19.5915 0 19.542C2.1795 20.9475 4.7625 21.75 7.548 21.75C16.602 21.75 21.552 14.25 21.552 7.749C21.552 7.5315 21.5445 7.3215 21.534 7.113C22.5105 6.42 23.331 5.5545 24 4.5585Z"/>
    </symbol>
    <symbol id="icon-facebook-1-16-408" viewBox="0 0 24 24">
      <path d="M15.997 3.985H18.188V0.169C17.81 0.117 16.51 0 14.996 0C11.837 0 9.67301 1.987 9.67301 5.639V9H6.18701V13.266H9.67301V24H13.947V13.267H17.292L17.823 9.001H13.946V6.062C13.947 4.829 14.279 3.985 15.997 3.985Z"/>
    </symbol>
    <symbol id="icon-linkedin-1-16-412" viewBox="0 0 24 24">
      <g clip-path="url(#clip0_0_4)"><path d="M23.9938 24.0001V23.9991H23.9998V15.1971C23.9998 10.8911 23.0728 7.5741 18.0388 7.5741C15.6188 7.5741 13.9948 8.9021 13.3318 10.1611H13.2618V7.9761H8.48877V23.9991H13.4588V16.0651C13.4588 13.9761 13.8548 11.9561 16.4418 11.9561C18.9908 11.9561 19.0288 14.3401 19.0288 16.1991V24.0001H23.9938Z"/><path d="M0.395996 7.97693H5.372V23.9999H0.395996V7.97693Z"/><path d="M2.882 0C1.291 0 0 1.291 0 2.882C0 4.473 1.291 5.791 2.882 5.791C4.473 5.791 5.764 4.473 5.764 2.882C5.763 1.291 4.472 0 2.882 0V0Z"/></g><defs><clipPath id="clip0_0_4"><rect width="24" height="24"/></clipPath></defs>
    </symbol>
    <symbol id="icon-instagram-2-0-2009" viewBox="0 0 16 16">
      <g clip-path="url(#clip0_0_28)"><path d="M15.9845 4.70404C15.9471 3.8539 15.8096 3.26944 15.6126 2.76299C15.4095 2.22541 15.0969 1.74412 14.6874 1.34401C14.2873 0.937683 13.8028 0.621948 13.2715 0.421957C12.7621 0.22502 12.1807 0.0875415 11.3306 0.0500586C10.4741 0.00940124 10.2022 0 8.02988 0C5.85758 0 5.58568 0.00940124 4.73236 0.0468842C3.88222 0.0843671 3.29775 0.221967 2.79143 0.418783C2.25373 0.621948 1.77243 0.934509 1.37233 1.34401C0.966003 1.74412 0.650389 2.22858 0.450277 2.75994C0.25334 3.26944 0.115862 3.85073 0.0783789 4.70087C0.0377215 5.55736 0.0283203 5.82926 0.0283203 8.00156C0.0283203 10.1739 0.0377215 10.4458 0.0752044 11.2991C0.112687 12.1492 0.250287 12.7337 0.447225 13.2401C0.650389 13.7777 0.966003 14.259 1.37233 14.6591C1.77243 15.0654 2.2569 15.3812 2.78826 15.5812C3.29775 15.7781 3.87904 15.9156 4.72931 15.9531C5.5825 15.9907 5.85453 16 8.02682 16C10.1991 16 10.471 15.9907 11.3243 15.9531C12.1745 15.9156 12.7589 15.7781 13.2653 15.5812C14.3406 15.1654 15.1907 14.3153 15.6064 13.2401C15.8032 12.7306 15.9408 12.1492 15.9783 11.2991C16.0158 10.4458 16.0252 10.1739 16.0252 8.00156C16.0252 5.82926 16.022 5.55736 15.9845 4.70404ZM14.5437 11.2366C14.5093 12.018 14.378 12.4399 14.2686 12.7212C13.9998 13.4183 13.4466 13.9715 12.7495 14.2403C12.4682 14.3497 12.0432 14.481 11.2649 14.5153C10.421 14.5529 10.1679 14.5622 8.03305 14.5622C5.89824 14.5622 5.64196 14.5529 4.8011 14.5153C4.0197 14.481 3.59774 14.3497 3.31644 14.2403C2.96957 14.1121 2.65383 13.909 2.39756 13.6433C2.13188 13.3838 1.92871 13.0713 1.80052 12.7244C1.69112 12.4431 1.55987 12.018 1.52556 11.2397C1.48795 10.3958 1.47868 10.1426 1.47868 8.00779C1.47868 5.87297 1.48795 5.6167 1.52556 4.77596C1.55987 3.99455 1.69112 3.5726 1.80052 3.29129C1.92871 2.9443 2.13188 2.62869 2.40073 2.37229C2.66006 2.10661 2.97262 1.90345 3.31961 1.77537C3.60091 1.66597 4.02605 1.53472 4.80427 1.50029C5.64819 1.46281 5.90141 1.45341 8.0361 1.45341C10.1741 1.45341 10.4272 1.46281 11.2681 1.50029C12.0495 1.53472 12.4714 1.66597 12.7527 1.77537C13.0996 1.90345 13.4153 2.10661 13.6716 2.37229C13.9373 2.63174 14.1404 2.9443 14.2686 3.29129C14.378 3.5726 14.5093 3.99761 14.5437 4.77596C14.5812 5.61987 14.5906 5.87297 14.5906 8.00779C14.5906 10.1426 14.5812 10.3927 14.5437 11.2366Z"/><path d="M8.02961 3.89136C5.76049 3.89136 3.91943 5.73229 3.91943 8.00153C3.91943 10.2708 5.76049 12.1117 8.02961 12.1117C10.2989 12.1117 12.1398 10.2708 12.1398 8.00153C12.1398 5.73229 10.2989 3.89136 8.02961 3.89136ZM8.02961 10.6677C6.55752 10.6677 5.36344 9.47375 5.36344 8.00153C5.36344 6.52932 6.55752 5.33536 8.02961 5.33536C9.50182 5.33536 10.6958 6.52932 10.6958 8.00153C10.6958 9.47375 9.50182 10.6677 8.02961 10.6677Z"/><path d="M13.262 3.72889C13.262 4.25878 12.8323 4.68843 12.3023 4.68843C11.7724 4.68843 11.3428 4.25878 11.3428 3.72889C11.3428 3.19888 11.7724 2.76935 12.3023 2.76935C12.8323 2.76935 13.262 3.19888 13.262 3.72889Z"/></g><defs><clipPath id="clip0_0_28"><rect width="16" height="16"/></clipPath></defs>
    </symbol>
    <symbol id="icon-twitter-1-0-2022" viewBox="0 0 16 16">
      <path d="M16 3.039C15.405 3.3 14.771 3.473 14.11 3.557C14.79 3.151 15.309 2.513 15.553 1.744C14.919 2.122 14.219 2.389 13.473 2.538C12.871 1.897 12.013 1.5 11.077 1.5C9.261 1.5 7.799 2.974 7.799 4.781C7.799 5.041 7.821 5.291 7.875 5.529C5.148 5.396 2.735 4.089 1.114 2.098C0.831 2.589 0.665 3.151 0.665 3.756C0.665 4.892 1.25 5.899 2.122 6.482C1.595 6.472 1.078 6.319 0.64 6.078C0.64 6.088 0.64 6.101 0.64 6.114C0.64 7.708 1.777 9.032 3.268 9.337C3.001 9.41 2.71 9.445 2.408 9.445C2.198 9.445 1.986 9.433 1.787 9.389C2.212 10.688 3.418 11.643 4.852 11.674C3.736 12.547 2.319 13.073 0.785 13.073C0.516 13.073 0.258 13.061 0 13.028C1.453 13.965 3.175 14.5 5.032 14.5C11.068 14.5 14.368 9.5 14.368 5.166C14.368 5.021 14.363 4.881 14.356 4.742C15.007 4.28 15.554 3.703 16 3.039Z"/>
    </symbol>
    <symbol id="icon-facebook-1-0-2033" viewBox="0 0 16 16">
      <g clip-path="url(#clip0_0_40)"><path d="M10.6645 2.65667H12.1252V0.112667C11.8732 0.078 11.0065 0 9.99718 0C7.89118 0 6.44851 1.32467 6.44851 3.75933V6H4.12451V8.844H6.44851V16H9.29785V8.84467H11.5278L11.8818 6.00067H9.29718V4.04133C9.29785 3.21933 9.51918 2.65667 10.6645 2.65667Z"/></g><defs><clipPath id="clip0_0_40"><rect width="16" height="16"/></clipPath></defs>
    </symbol>
    <symbol id="icon-linkedin-1-0-2044" viewBox="0 0 16 16">
      <g clip-path="url(#clip0_0_44)"><path d="M15.9959 16V15.9994H15.9999V10.1314C15.9999 7.26071 15.3819 5.04938 12.0259 5.04938C10.4125 5.04938 9.32985 5.93471 8.88785 6.77404H8.84118V5.31738H5.65918V15.9994H8.97252V10.71C8.97252 9.31738 9.23652 7.97071 10.9612 7.97071C12.6605 7.97071 12.6859 9.56004 12.6859 10.7994V16H15.9959Z"/><path d="M0.26416 5.31796H3.58149V16H0.26416V5.31796Z"/><path d="M1.92133 0C0.860667 0 0 0.860667 0 1.92133C0 2.982 0.860667 3.86067 1.92133 3.86067C2.982 3.86067 3.84267 2.982 3.84267 1.92133C3.842 0.860667 2.98133 0 1.92133 0V0Z"/></g><defs><clipPath id="clip0_0_44"><rect width="16" height="16"/></clipPath></defs>
    </symbol>
    <symbol id="icon-studio-2-2072" viewBox="0 0 48 48">
      <path d="M7.14062 14.0703C7.14062 13.8359 7.10417 13.6276 7.03125 13.4453C6.96354 13.263 6.84115 13.0964 6.66406 12.9453C6.48698 12.7943 6.23698 12.6484 5.91406 12.5078C5.59635 12.362 5.1901 12.2135 4.69531 12.0625C4.15365 11.8958 3.65365 11.7109 3.19531 11.5078C2.74219 11.2995 2.34635 11.0599 2.00781 10.7891C1.66927 10.513 1.40625 10.1979 1.21875 9.84375C1.03125 9.48438 0.9375 9.07031 0.9375 8.60156C0.9375 8.13802 1.03385 7.71615 1.22656 7.33594C1.42448 6.95573 1.70312 6.6276 2.0625 6.35156C2.42708 6.07031 2.85677 5.85417 3.35156 5.70312C3.84635 5.54688 4.39323 5.46875 4.99219 5.46875C5.83594 5.46875 6.5625 5.625 7.17188 5.9375C7.78646 6.25 8.25781 6.66927 8.58594 7.19531C8.91927 7.72135 9.08594 8.30208 9.08594 8.9375H7.14062C7.14062 8.5625 7.0599 8.23177 6.89844 7.94531C6.74219 7.65365 6.5026 7.42448 6.17969 7.25781C5.86198 7.09115 5.45833 7.00781 4.96875 7.00781C4.50521 7.00781 4.11979 7.07812 3.8125 7.21875C3.50521 7.35938 3.27604 7.54948 3.125 7.78906C2.97396 8.02865 2.89844 8.29948 2.89844 8.60156C2.89844 8.8151 2.94792 9.01042 3.04688 9.1875C3.14583 9.35938 3.29688 9.52083 3.5 9.67188C3.70312 9.81771 3.95833 9.95573 4.26562 10.0859C4.57292 10.2161 4.9349 10.3411 5.35156 10.4609C5.98177 10.6484 6.53125 10.8568 7 11.0859C7.46875 11.3099 7.85938 11.5651 8.17188 11.8516C8.48438 12.138 8.71875 12.4635 8.875 12.8281C9.03125 13.1875 9.10938 13.5964 9.10938 14.0547C9.10938 14.5339 9.01302 14.9661 8.82031 15.3516C8.6276 15.7318 8.35156 16.0573 7.99219 16.3281C7.63802 16.5938 7.21094 16.7995 6.71094 16.9453C6.21615 17.0859 5.66406 17.1562 5.05469 17.1562C4.50781 17.1562 3.96875 17.0833 3.4375 16.9375C2.91146 16.7917 2.43229 16.5703 2 16.2734C1.56771 15.9714 1.22396 15.5964 0.96875 15.1484C0.713542 14.6953 0.585938 14.1667 0.585938 13.5625H2.54688C2.54688 13.9323 2.60938 14.2474 2.73438 14.5078C2.86458 14.7682 3.04427 14.9818 3.27344 15.1484C3.5026 15.3099 3.76823 15.4297 4.07031 15.5078C4.3776 15.5859 4.70573 15.625 5.05469 15.625C5.51302 15.625 5.89583 15.5599 6.20312 15.4297C6.51562 15.2995 6.75 15.1172 6.90625 14.8828C7.0625 14.6484 7.14062 14.3776 7.14062 14.0703ZM14.8512 8.54688V9.92188H10.0856V8.54688H14.8512ZM11.4606 6.47656H13.3434V14.6641C13.3434 14.9245 13.3799 15.125 13.4528 15.2656C13.5309 15.401 13.6377 15.4922 13.7731 15.5391C13.9085 15.5859 14.0674 15.6094 14.2497 15.6094C14.3799 15.6094 14.5049 15.6016 14.6247 15.5859C14.7445 15.5703 14.8408 15.5547 14.9137 15.5391L14.9216 16.9766C14.7653 17.0234 14.583 17.0651 14.3747 17.1016C14.1716 17.138 13.9372 17.1562 13.6716 17.1562C13.2393 17.1562 12.8565 17.0807 12.5231 16.9297C12.1898 16.7734 11.9294 16.5208 11.7419 16.1719C11.5544 15.8229 11.4606 15.3594 11.4606 14.7812V6.47656ZM21.7103 15.0078V8.54688H23.6009V17H21.8197L21.7103 15.0078ZM21.9759 13.25L22.6088 13.2344C22.6088 13.8021 22.5463 14.3255 22.4213 14.8047C22.2963 15.2786 22.1035 15.6927 21.8431 16.0469C21.5827 16.3958 21.2494 16.6693 20.8431 16.8672C20.4369 17.0599 19.9499 17.1562 19.3822 17.1562C18.9707 17.1562 18.5931 17.0964 18.2494 16.9766C17.9056 16.8568 17.6088 16.6719 17.3588 16.4219C17.114 16.1719 16.9239 15.8464 16.7884 15.4453C16.653 15.0443 16.5853 14.5651 16.5853 14.0078V8.54688H18.4681V14.0234C18.4681 14.3307 18.5046 14.5885 18.5775 14.7969C18.6504 15 18.7494 15.1641 18.8744 15.2891C18.9994 15.4141 19.1452 15.5026 19.3119 15.5547C19.4785 15.6068 19.6556 15.6328 19.8431 15.6328C20.3796 15.6328 20.8015 15.5286 21.1088 15.3203C21.4213 15.1068 21.6426 14.8203 21.7728 14.4609C21.9082 14.1016 21.9759 13.6979 21.9759 13.25ZM31.0069 15.25V5H32.8975V17H31.1866L31.0069 15.25ZM25.5069 12.8672V12.7031C25.5069 12.0625 25.5824 11.4792 25.7334 10.9531C25.8845 10.4219 26.1032 9.96615 26.3897 9.58594C26.6761 9.20052 27.0251 8.90625 27.4366 8.70312C27.848 8.49479 28.3116 8.39062 28.8272 8.39062C29.3376 8.39062 29.7855 8.48958 30.1709 8.6875C30.5564 8.88542 30.8845 9.16927 31.1553 9.53906C31.4261 9.90365 31.6423 10.3411 31.8037 10.8516C31.9652 11.3568 32.0798 11.9193 32.1475 12.5391V13.0625C32.0798 13.6667 31.9652 14.2188 31.8037 14.7188C31.6423 15.2188 31.4261 15.651 31.1553 16.0156C30.8845 16.3802 30.5537 16.6615 30.1631 16.8594C29.7777 17.0573 29.3272 17.1562 28.8116 17.1562C28.3011 17.1562 27.8402 17.0495 27.4287 16.8359C27.0225 16.6224 26.6761 16.3229 26.3897 15.9375C26.1032 15.5521 25.8845 15.099 25.7334 14.5781C25.5824 14.0521 25.5069 13.4818 25.5069 12.8672ZM27.3897 12.7031V12.8672C27.3897 13.2526 27.4235 13.612 27.4912 13.9453C27.5642 14.2786 27.6761 14.5729 27.8272 14.8281C27.9782 15.0781 28.1735 15.276 28.4131 15.4219C28.6579 15.5625 28.9496 15.6328 29.2881 15.6328C29.7152 15.6328 30.0668 15.5391 30.3428 15.3516C30.6189 15.1641 30.835 14.9115 30.9912 14.5938C31.1527 14.2708 31.2621 13.9115 31.3194 13.5156V12.1016C31.2881 11.7943 31.223 11.5078 31.1241 11.2422C31.0303 10.9766 30.9027 10.7448 30.7412 10.5469C30.5798 10.3438 30.3793 10.1875 30.1397 10.0781C29.9053 9.96354 29.6267 9.90625 29.3037 9.90625C28.96 9.90625 28.6683 9.97917 28.4287 10.125C28.1892 10.2708 27.9912 10.4714 27.835 10.7266C27.684 10.9818 27.572 11.2786 27.4991 11.6172C27.4261 11.9557 27.3897 12.3177 27.3897 12.7031ZM37.2019 8.54688V17H35.3112V8.54688H37.2019ZM35.1862 6.32812C35.1862 6.04167 35.28 5.80469 35.4675 5.61719C35.6602 5.42448 35.9258 5.32812 36.2644 5.32812C36.5977 5.32812 36.8607 5.42448 37.0534 5.61719C37.2461 5.80469 37.3425 6.04167 37.3425 6.32812C37.3425 6.60938 37.2461 6.84375 37.0534 7.03125C36.8607 7.21875 36.5977 7.3125 36.2644 7.3125C35.9258 7.3125 35.6602 7.21875 35.4675 7.03125C35.28 6.84375 35.1862 6.60938 35.1862 6.32812ZM39.225 12.8672V12.6875C39.225 12.0781 39.3135 11.513 39.4906 10.9922C39.6677 10.4661 39.9229 10.0104 40.2562 9.625C40.5948 9.23438 41.0062 8.93229 41.4906 8.71875C41.9802 8.5 42.5323 8.39062 43.1469 8.39062C43.7667 8.39062 44.3187 8.5 44.8031 8.71875C45.2927 8.93229 45.7068 9.23438 46.0453 9.625C46.3839 10.0104 46.6417 10.4661 46.8187 10.9922C46.9958 11.513 47.0844 12.0781 47.0844 12.6875V12.8672C47.0844 13.4766 46.9958 14.0417 46.8187 14.5625C46.6417 15.0833 46.3839 15.5391 46.0453 15.9297C45.7068 16.3151 45.2953 16.6172 44.8109 16.8359C44.3266 17.0495 43.7771 17.1562 43.1625 17.1562C42.5427 17.1562 41.988 17.0495 41.4984 16.8359C41.0141 16.6172 40.6026 16.3151 40.2641 15.9297C39.9255 15.5391 39.6677 15.0833 39.4906 14.5625C39.3135 14.0417 39.225 13.4766 39.225 12.8672ZM41.1078 12.6875V12.8672C41.1078 13.2474 41.1469 13.6068 41.225 13.9453C41.3031 14.2839 41.4255 14.5807 41.5922 14.8359C41.7589 15.0911 41.9724 15.2917 42.2328 15.4375C42.4932 15.5833 42.8031 15.6562 43.1625 15.6562C43.5115 15.6562 43.8135 15.5833 44.0687 15.4375C44.3292 15.2917 44.5427 15.0911 44.7094 14.8359C44.876 14.5807 44.9984 14.2839 45.0766 13.9453C45.1599 13.6068 45.2016 13.2474 45.2016 12.8672V12.6875C45.2016 12.3125 45.1599 11.9583 45.0766 11.625C44.9984 11.2865 44.8734 10.987 44.7016 10.7266C44.5349 10.4661 44.3214 10.263 44.0609 10.1172C43.8057 9.96615 43.501 9.89062 43.1469 9.89062C42.7927 9.89062 42.4854 9.96615 42.225 10.1172C41.9698 10.263 41.7589 10.4661 41.5922 10.7266C41.4255 10.987 41.3031 11.2865 41.225 11.625C41.1469 11.9583 41.1078 12.3125 41.1078 12.6875Z"/><rect y="44" width="48" height="4" rx="2"/>
    </symbol>
    <symbol id="icon-portfolio-2-2075" viewBox="0 0 66 48">
      <path d="M5.47656 12.7578H2.51562V11.2031H5.47656C5.99219 11.2031 6.40885 11.1198 6.72656 10.9531C7.04427 10.7865 7.27604 10.5573 7.42188 10.2656C7.57292 9.96875 7.64844 9.63021 7.64844 9.25C7.64844 8.89062 7.57292 8.55469 7.42188 8.24219C7.27604 7.92448 7.04427 7.66927 6.72656 7.47656C6.40885 7.28385 5.99219 7.1875 5.47656 7.1875H3.11719V17H1.15625V5.625H5.47656C6.35677 5.625 7.10417 5.78125 7.71875 6.09375C8.33854 6.40104 8.8099 6.82812 9.13281 7.375C9.45573 7.91667 9.61719 8.53646 9.61719 9.23438C9.61719 9.96875 9.45573 10.599 9.13281 11.125C8.8099 11.651 8.33854 12.0547 7.71875 12.3359C7.10417 12.6172 6.35677 12.7578 5.47656 12.7578ZM11.0387 12.8672V12.6875C11.0387 12.0781 11.1273 11.513 11.3044 10.9922C11.4815 10.4661 11.7367 10.0104 12.07 9.625C12.4085 9.23438 12.82 8.93229 13.3044 8.71875C13.794 8.5 14.346 8.39062 14.9606 8.39062C15.5804 8.39062 16.1325 8.5 16.6169 8.71875C17.1065 8.93229 17.5205 9.23438 17.8591 9.625C18.1976 10.0104 18.4554 10.4661 18.6325 10.9922C18.8096 11.513 18.8981 12.0781 18.8981 12.6875V12.8672C18.8981 13.4766 18.8096 14.0417 18.6325 14.5625C18.4554 15.0833 18.1976 15.5391 17.8591 15.9297C17.5205 16.3151 17.1091 16.6172 16.6247 16.8359C16.1403 17.0495 15.5908 17.1562 14.9762 17.1562C14.3565 17.1562 13.8018 17.0495 13.3122 16.8359C12.8278 16.6172 12.4164 16.3151 12.0778 15.9297C11.7393 15.5391 11.4815 15.0833 11.3044 14.5625C11.1273 14.0417 11.0387 13.4766 11.0387 12.8672ZM12.9216 12.6875V12.8672C12.9216 13.2474 12.9606 13.6068 13.0387 13.9453C13.1169 14.2839 13.2393 14.5807 13.4059 14.8359C13.5726 15.0911 13.7861 15.2917 14.0466 15.4375C14.307 15.5833 14.6169 15.6562 14.9762 15.6562C15.3252 15.6562 15.6273 15.5833 15.8825 15.4375C16.1429 15.2917 16.3565 15.0911 16.5231 14.8359C16.6898 14.5807 16.8122 14.2839 16.8903 13.9453C16.9736 13.6068 17.0153 13.2474 17.0153 12.8672V12.6875C17.0153 12.3125 16.9736 11.9583 16.8903 11.625C16.8122 11.2865 16.6872 10.987 16.5153 10.7266C16.3486 10.4661 16.1351 10.263 15.8747 10.1172C15.6195 9.96615 15.3148 9.89062 14.9606 9.89062C14.6065 9.89062 14.2992 9.96615 14.0387 10.1172C13.7835 10.263 13.5726 10.4661 13.4059 10.7266C13.2393 10.987 13.1169 11.2865 13.0387 11.625C12.9606 11.9583 12.9216 12.3125 12.9216 12.6875ZM22.6869 10.1562V17H20.8041V8.54688H22.6009L22.6869 10.1562ZM25.2728 8.49219L25.2572 10.2422C25.1426 10.2214 25.0176 10.2057 24.8822 10.1953C24.752 10.1849 24.6218 10.1797 24.4916 10.1797C24.1686 10.1797 23.8848 10.2266 23.64 10.3203C23.3952 10.4089 23.1895 10.5391 23.0228 10.7109C22.8614 10.8776 22.7364 11.0807 22.6478 11.3203C22.5593 11.5599 22.5072 11.8281 22.4916 12.125L22.0619 12.1562C22.0619 11.625 22.114 11.1328 22.2181 10.6797C22.3223 10.2266 22.4785 9.82812 22.6869 9.48438C22.9004 9.14062 23.166 8.8724 23.4837 8.67969C23.8067 8.48698 24.1791 8.39062 24.6009 8.39062C24.7155 8.39062 24.8379 8.40104 24.9681 8.42188C25.1035 8.44271 25.2051 8.46615 25.2728 8.49219ZM31.0381 8.54688V9.92188H26.2725V8.54688H31.0381ZM27.6475 6.47656H29.5303V14.6641C29.5303 14.9245 29.5668 15.125 29.6397 15.2656C29.7178 15.401 29.8246 15.4922 29.96 15.5391C30.0954 15.5859 30.2543 15.6094 30.4366 15.6094C30.5668 15.6094 30.6918 15.6016 30.8116 15.5859C30.9314 15.5703 31.0277 15.5547 31.1006 15.5391L31.1084 16.9766C30.9522 17.0234 30.7699 17.0651 30.5616 17.1016C30.3584 17.138 30.1241 17.1562 29.8584 17.1562C29.4261 17.1562 29.0433 17.0807 28.71 16.9297C28.3767 16.7734 28.1162 16.5208 27.9287 16.1719C27.7412 15.8229 27.6475 15.3594 27.6475 14.7812V6.47656ZM35.3581 17H33.4753V7.73438C33.4753 7.10417 33.5925 6.57552 33.8269 6.14844C34.0665 5.71615 34.4076 5.39062 34.8503 5.17188C35.293 4.94792 35.8165 4.83594 36.4206 4.83594C36.6081 4.83594 36.793 4.84896 36.9753 4.875C37.1576 4.89583 37.3347 4.92969 37.5066 4.97656L37.4597 6.42969C37.3555 6.40365 37.2409 6.38542 37.1159 6.375C36.9961 6.36458 36.8659 6.35938 36.7253 6.35938C36.4389 6.35938 36.1915 6.41406 35.9831 6.52344C35.78 6.6276 35.6238 6.78125 35.5144 6.98438C35.4102 7.1875 35.3581 7.4375 35.3581 7.73438V17ZM37.1003 8.54688V9.92188H32.1784V8.54688H37.1003ZM38.4281 12.8672V12.6875C38.4281 12.0781 38.5167 11.513 38.6937 10.9922C38.8708 10.4661 39.126 10.0104 39.4594 9.625C39.7979 9.23438 40.2094 8.93229 40.6937 8.71875C41.1833 8.5 41.7354 8.39062 42.35 8.39062C42.9698 8.39062 43.5219 8.5 44.0062 8.71875C44.4958 8.93229 44.9099 9.23438 45.2484 9.625C45.587 10.0104 45.8448 10.4661 46.0219 10.9922C46.199 11.513 46.2875 12.0781 46.2875 12.6875V12.8672C46.2875 13.4766 46.199 14.0417 46.0219 14.5625C45.8448 15.0833 45.587 15.5391 45.2484 15.9297C44.9099 16.3151 44.4984 16.6172 44.0141 16.8359C43.5297 17.0495 42.9802 17.1562 42.3656 17.1562C41.7458 17.1562 41.1911 17.0495 40.7016 16.8359C40.2172 16.6172 39.8057 16.3151 39.4672 15.9297C39.1286 15.5391 38.8708 15.0833 38.6937 14.5625C38.5167 14.0417 38.4281 13.4766 38.4281 12.8672ZM40.3109 12.6875V12.8672C40.3109 13.2474 40.35 13.6068 40.4281 13.9453C40.5062 14.2839 40.6286 14.5807 40.7953 14.8359C40.962 15.0911 41.1755 15.2917 41.4359 15.4375C41.6964 15.5833 42.0062 15.6562 42.3656 15.6562C42.7146 15.6562 43.0167 15.5833 43.2719 15.4375C43.5323 15.2917 43.7458 15.0911 43.9125 14.8359C44.0792 14.5807 44.2016 14.2839 44.2797 13.9453C44.363 13.6068 44.4047 13.2474 44.4047 12.8672V12.6875C44.4047 12.3125 44.363 11.9583 44.2797 11.625C44.2016 11.2865 44.0766 10.987 43.9047 10.7266C43.738 10.4661 43.5245 10.263 43.2641 10.1172C43.0089 9.96615 42.7042 9.89062 42.35 9.89062C41.9958 9.89062 41.6885 9.96615 41.4281 10.1172C41.1729 10.263 40.962 10.4661 40.7953 10.7266C40.6286 10.987 40.5062 11.2865 40.4281 11.625C40.35 11.9583 40.3109 12.3125 40.3109 12.6875ZM50.2012 5V17H48.3106V5H50.2012ZM54.5994 8.54688V17H52.7088V8.54688H54.5994ZM52.5838 6.32812C52.5838 6.04167 52.6775 5.80469 52.865 5.61719C53.0577 5.42448 53.3233 5.32812 53.6619 5.32812C53.9952 5.32812 54.2582 5.42448 54.4509 5.61719C54.6436 5.80469 54.74 6.04167 54.74 6.32812C54.74 6.60938 54.6436 6.84375 54.4509 7.03125C54.2582 7.21875 53.9952 7.3125 53.6619 7.3125C53.3233 7.3125 53.0577 7.21875 52.865 7.03125C52.6775 6.84375 52.5838 6.60938 52.5838 6.32812ZM56.6225 12.8672V12.6875C56.6225 12.0781 56.711 11.513 56.8881 10.9922C57.0652 10.4661 57.3204 10.0104 57.6538 9.625C57.9923 9.23438 58.4038 8.93229 58.8881 8.71875C59.3777 8.5 59.9298 8.39062 60.5444 8.39062C61.1642 8.39062 61.7163 8.5 62.2006 8.71875C62.6902 8.93229 63.1043 9.23438 63.4428 9.625C63.7814 10.0104 64.0392 10.4661 64.2163 10.9922C64.3933 11.513 64.4819 12.0781 64.4819 12.6875V12.8672C64.4819 13.4766 64.3933 14.0417 64.2163 14.5625C64.0392 15.0833 63.7814 15.5391 63.4428 15.9297C63.1043 16.3151 62.6928 16.6172 62.2084 16.8359C61.7241 17.0495 61.1746 17.1562 60.56 17.1562C59.9402 17.1562 59.3855 17.0495 58.8959 16.8359C58.4116 16.6172 58.0001 16.3151 57.6616 15.9297C57.323 15.5391 57.0652 15.0833 56.8881 14.5625C56.711 14.0417 56.6225 13.4766 56.6225 12.8672ZM58.5053 12.6875V12.8672C58.5053 13.2474 58.5444 13.6068 58.6225 13.9453C58.7006 14.2839 58.823 14.5807 58.9897 14.8359C59.1564 15.0911 59.3699 15.2917 59.6303 15.4375C59.8907 15.5833 60.2006 15.6562 60.56 15.6562C60.909 15.6562 61.211 15.5833 61.4663 15.4375C61.7267 15.2917 61.9402 15.0911 62.1069 14.8359C62.2735 14.5807 62.3959 14.2839 62.4741 13.9453C62.5574 13.6068 62.5991 13.2474 62.5991 12.8672V12.6875C62.5991 12.3125 62.5574 11.9583 62.4741 11.625C62.3959 11.2865 62.2709 10.987 62.0991 10.7266C61.9324 10.4661 61.7189 10.263 61.4584 10.1172C61.2032 9.96615 60.8985 9.89062 60.5444 9.89062C60.1902 9.89062 59.8829 9.96615 59.6225 10.1172C59.3673 10.263 59.1564 10.4661 58.9897 10.7266C58.823 10.987 58.7006 11.2865 58.6225 11.625C58.5444 11.9583 58.5053 12.3125 58.5053 12.6875Z"/>
    </symbol>
    <symbol id="icon-contacts-2-2079" viewBox="0 0 67 47">
      <path d="M7.875 13.2969H9.82812C9.76562 14.0417 9.55729 14.7057 9.20312 15.2891C8.84896 15.8672 8.35156 16.3229 7.71094 16.6562C7.07031 16.9896 6.29167 17.1562 5.375 17.1562C4.67188 17.1562 4.03906 17.0312 3.47656 16.7812C2.91406 16.526 2.43229 16.1667 2.03125 15.7031C1.63021 15.2344 1.32292 14.6693 1.10938 14.0078C0.901042 13.3464 0.796875 12.6068 0.796875 11.7891V10.8438C0.796875 10.026 0.903646 9.28646 1.11719 8.625C1.33594 7.96354 1.64844 7.39844 2.05469 6.92969C2.46094 6.45573 2.94792 6.09375 3.51562 5.84375C4.08854 5.59375 4.73177 5.46875 5.44531 5.46875C6.35156 5.46875 7.11719 5.63542 7.74219 5.96875C8.36719 6.30208 8.85156 6.76302 9.19531 7.35156C9.54427 7.9401 9.75781 8.61458 9.83594 9.375H7.88281C7.83073 8.88542 7.71615 8.46615 7.53906 8.11719C7.36719 7.76823 7.11198 7.5026 6.77344 7.32031C6.4349 7.13281 5.99219 7.03906 5.44531 7.03906C4.9974 7.03906 4.60677 7.1224 4.27344 7.28906C3.9401 7.45573 3.66146 7.70052 3.4375 8.02344C3.21354 8.34635 3.04427 8.74479 2.92969 9.21875C2.82031 9.6875 2.76562 10.224 2.76562 10.8281V11.7891C2.76562 12.362 2.8151 12.8828 2.91406 13.3516C3.01823 13.8151 3.17448 14.2135 3.38281 14.5469C3.59635 14.8802 3.86719 15.138 4.19531 15.3203C4.52344 15.5026 4.91667 15.5938 5.375 15.5938C5.93229 15.5938 6.38281 15.5052 6.72656 15.3281C7.07552 15.151 7.33854 14.8932 7.51562 14.5547C7.69792 14.2109 7.81771 13.7917 7.875 13.2969ZM11.3825 12.8672V12.6875C11.3825 12.0781 11.471 11.513 11.6481 10.9922C11.8252 10.4661 12.0804 10.0104 12.4137 9.625C12.7523 9.23438 13.1637 8.93229 13.6481 8.71875C14.1377 8.5 14.6898 8.39062 15.3044 8.39062C15.9242 8.39062 16.4762 8.5 16.9606 8.71875C17.4502 8.93229 17.8643 9.23438 18.2028 9.625C18.5414 10.0104 18.7992 10.4661 18.9762 10.9922C19.1533 11.513 19.2419 12.0781 19.2419 12.6875V12.8672C19.2419 13.4766 19.1533 14.0417 18.9762 14.5625C18.7992 15.0833 18.5414 15.5391 18.2028 15.9297C17.8643 16.3151 17.4528 16.6172 16.9684 16.8359C16.4841 17.0495 15.9346 17.1562 15.32 17.1562C14.7002 17.1562 14.1455 17.0495 13.6559 16.8359C13.1716 16.6172 12.7601 16.3151 12.4216 15.9297C12.083 15.5391 11.8252 15.0833 11.6481 14.5625C11.471 14.0417 11.3825 13.4766 11.3825 12.8672ZM13.2653 12.6875V12.8672C13.2653 13.2474 13.3044 13.6068 13.3825 13.9453C13.4606 14.2839 13.583 14.5807 13.7497 14.8359C13.9164 15.0911 14.1299 15.2917 14.3903 15.4375C14.6507 15.5833 14.9606 15.6562 15.32 15.6562C15.669 15.6562 15.971 15.5833 16.2262 15.4375C16.4867 15.2917 16.7002 15.0911 16.8669 14.8359C17.0335 14.5807 17.1559 14.2839 17.2341 13.9453C17.3174 13.6068 17.3591 13.2474 17.3591 12.8672V12.6875C17.3591 12.3125 17.3174 11.9583 17.2341 11.625C17.1559 11.2865 17.0309 10.987 16.8591 10.7266C16.6924 10.4661 16.4789 10.263 16.2184 10.1172C15.9632 9.96615 15.6585 9.89062 15.3044 9.89062C14.9502 9.89062 14.6429 9.96615 14.3825 10.1172C14.1273 10.263 13.9164 10.4661 13.7497 10.7266C13.583 10.987 13.4606 11.2865 13.3825 11.625C13.3044 11.9583 13.2653 12.3125 13.2653 12.6875ZM23.0072 10.3516V17H21.1244V8.54688H22.8978L23.0072 10.3516ZM22.6712 12.4609L22.0619 12.4531C22.0671 11.8542 22.1504 11.3047 22.3119 10.8047C22.4785 10.3047 22.7077 9.875 22.9994 9.51562C23.2962 9.15625 23.6504 8.88021 24.0619 8.6875C24.4733 8.48958 24.9317 8.39062 25.4369 8.39062C25.8431 8.39062 26.2103 8.44792 26.5384 8.5625C26.8718 8.67188 27.1556 8.85156 27.39 9.10156C27.6296 9.35156 27.8119 9.67708 27.9369 10.0781C28.0619 10.474 28.1244 10.9609 28.1244 11.5391V17H26.2337V11.5312C26.2337 11.125 26.1739 10.8047 26.0541 10.5703C25.9395 10.3307 25.7702 10.1615 25.5462 10.0625C25.3275 9.95833 25.0541 9.90625 24.7259 9.90625C24.403 9.90625 24.114 9.97396 23.8587 10.1094C23.6035 10.2448 23.3874 10.4297 23.2103 10.6641C23.0384 10.8984 22.9056 11.1693 22.8119 11.4766C22.7181 11.7839 22.6712 12.112 22.6712 12.4609ZM34.2412 8.54688V9.92188H29.4756V8.54688H34.2412ZM30.8506 6.47656H32.7334V14.6641C32.7334 14.9245 32.7699 15.125 32.8428 15.2656C32.9209 15.401 33.0277 15.4922 33.1631 15.5391C33.2985 15.5859 33.4574 15.6094 33.6397 15.6094C33.7699 15.6094 33.8949 15.6016 34.0147 15.5859C34.1345 15.5703 34.2308 15.5547 34.3037 15.5391L34.3116 16.9766C34.1553 17.0234 33.973 17.0651 33.7647 17.1016C33.5616 17.138 33.3272 17.1562 33.0616 17.1562C32.6293 17.1562 32.2465 17.0807 31.9131 16.9297C31.5798 16.7734 31.3194 16.5208 31.1319 16.1719C30.9444 15.8229 30.8506 15.3594 30.8506 14.7812V6.47656ZM40.78 15.3047V11.2734C40.78 10.9714 40.7253 10.7109 40.6159 10.4922C40.5066 10.2734 40.3399 10.1042 40.1159 9.98438C39.8972 9.86458 39.6211 9.80469 39.2878 9.80469C38.9805 9.80469 38.7149 9.85677 38.4909 9.96094C38.267 10.0651 38.0925 10.2057 37.9675 10.3828C37.8425 10.5599 37.78 10.7604 37.78 10.9844H35.905C35.905 10.651 35.9857 10.3281 36.1472 10.0156C36.3086 9.70312 36.543 9.42448 36.8503 9.17969C37.1576 8.9349 37.5248 8.74219 37.9519 8.60156C38.379 8.46094 38.8581 8.39062 39.3894 8.39062C40.0248 8.39062 40.5873 8.4974 41.0769 8.71094C41.5717 8.92448 41.9597 9.2474 42.2409 9.67969C42.5274 10.1068 42.6706 10.6432 42.6706 11.2891V15.0469C42.6706 15.4323 42.6967 15.7786 42.7487 16.0859C42.806 16.388 42.8868 16.651 42.9909 16.875V17H41.0612C40.9727 16.7969 40.9024 16.5391 40.8503 16.2266C40.8034 15.9089 40.78 15.6016 40.78 15.3047ZM41.0534 11.8594L41.0691 13.0234H39.7175C39.3685 13.0234 39.0612 13.0573 38.7956 13.125C38.53 13.1875 38.3086 13.2812 38.1316 13.4062C37.9545 13.5312 37.8217 13.6823 37.7331 13.8594C37.6446 14.0365 37.6003 14.237 37.6003 14.4609C37.6003 14.6849 37.6524 14.8906 37.7566 15.0781C37.8607 15.2604 38.0118 15.4036 38.2097 15.5078C38.4128 15.612 38.6576 15.6641 38.9441 15.6641C39.3295 15.6641 39.6654 15.5859 39.9519 15.4297C40.2435 15.2682 40.4727 15.0729 40.6394 14.8438C40.806 14.6094 40.8946 14.388 40.905 14.1797L41.5144 15.0156C41.4519 15.2292 41.3451 15.4583 41.1941 15.7031C41.043 15.9479 40.8451 16.1823 40.6003 16.4062C40.3607 16.625 40.0717 16.8047 39.7331 16.9453C39.3998 17.0859 39.0144 17.1562 38.5769 17.1562C38.0248 17.1562 37.5326 17.0469 37.1003 16.8281C36.668 16.6042 36.3295 16.3047 36.0847 15.9297C35.8399 15.5495 35.7175 15.1198 35.7175 14.6406C35.7175 14.1927 35.8008 13.7969 35.9675 13.4531C36.1394 13.1042 36.3894 12.8125 36.7175 12.5781C37.0508 12.3438 37.4571 12.1667 37.9362 12.0469C38.4154 11.9219 38.9623 11.8594 39.5769 11.8594H41.0534ZM48.4125 15.6562C48.7198 15.6562 48.9958 15.5964 49.2406 15.4766C49.4906 15.3516 49.6911 15.1797 49.8422 14.9609C49.9984 14.7422 50.0844 14.4896 50.1 14.2031H51.8734C51.863 14.75 51.7016 15.2474 51.3891 15.6953C51.0766 16.1432 50.6625 16.5 50.1469 16.7656C49.6312 17.026 49.0609 17.1562 48.4359 17.1562C47.7901 17.1562 47.2276 17.0469 46.7484 16.8281C46.2693 16.6042 45.8708 16.2969 45.5531 15.9062C45.2354 15.5156 44.9958 15.0651 44.8344 14.5547C44.6781 14.0443 44.6 13.4974 44.6 12.9141V12.6406C44.6 12.0573 44.6781 11.5104 44.8344 11C44.9958 10.4844 45.2354 10.0312 45.5531 9.64062C45.8708 9.25 46.2693 8.94531 46.7484 8.72656C47.2276 8.5026 47.7875 8.39062 48.4281 8.39062C49.1052 8.39062 49.699 8.52604 50.2094 8.79688C50.7198 9.0625 51.1208 9.4349 51.4125 9.91406C51.7094 10.388 51.863 10.9401 51.8734 11.5703H50.1C50.0844 11.2578 50.0062 10.9766 49.8656 10.7266C49.7302 10.4714 49.5375 10.2682 49.2875 10.1172C49.0427 9.96615 48.7484 9.89062 48.4047 9.89062C48.0245 9.89062 47.7094 9.96875 47.4594 10.125C47.2094 10.276 47.0141 10.4844 46.8734 10.75C46.7328 11.0104 46.6312 11.3047 46.5687 11.6328C46.5115 11.9557 46.4828 12.2917 46.4828 12.6406V12.9141C46.4828 13.263 46.5115 13.6016 46.5687 13.9297C46.626 14.2578 46.725 14.5521 46.8656 14.8125C47.0115 15.0677 47.2094 15.2734 47.4594 15.4297C47.7094 15.5807 48.0271 15.6562 48.4125 15.6562ZM57.5137 8.54688V9.92188H52.7481V8.54688H57.5137ZM54.1231 6.47656H56.0059V14.6641C56.0059 14.9245 56.0424 15.125 56.1153 15.2656C56.1934 15.401 56.3002 15.4922 56.4356 15.5391C56.571 15.5859 56.7299 15.6094 56.9122 15.6094C57.0424 15.6094 57.1674 15.6016 57.2872 15.5859C57.407 15.5703 57.5033 15.5547 57.5762 15.5391L57.5841 16.9766C57.4278 17.0234 57.2455 17.0651 57.0372 17.1016C56.8341 17.138 56.5997 17.1562 56.3341 17.1562C55.9018 17.1562 55.519 17.0807 55.1856 16.9297C54.8523 16.7734 54.5919 16.5208 54.4044 16.1719C54.2169 15.8229 54.1231 15.3594 54.1231 14.7812V6.47656ZM64.0291 14.7109C64.0291 14.5234 63.9822 14.3542 63.8884 14.2031C63.7947 14.0469 63.615 13.9062 63.3494 13.7812C63.089 13.6562 62.7035 13.5417 62.1931 13.4375C61.7452 13.3385 61.3338 13.2214 60.9588 13.0859C60.589 12.9453 60.2713 12.776 60.0056 12.5781C59.74 12.3802 59.5343 12.1458 59.3884 11.875C59.2426 11.6042 59.1697 11.2917 59.1697 10.9375C59.1697 10.5938 59.2452 10.2682 59.3963 9.96094C59.5473 9.65365 59.7634 9.38281 60.0447 9.14844C60.3259 8.91406 60.6671 8.72917 61.0681 8.59375C61.4744 8.45833 61.9275 8.39062 62.4275 8.39062C63.1358 8.39062 63.7426 8.51042 64.2478 8.75C64.7582 8.98438 65.1489 9.30469 65.4197 9.71094C65.6905 10.112 65.8259 10.5651 65.8259 11.0703H63.9431C63.9431 10.8464 63.8858 10.638 63.7713 10.4453C63.6619 10.2474 63.4952 10.0885 63.2713 9.96875C63.0473 9.84375 62.766 9.78125 62.4275 9.78125C62.1046 9.78125 61.8364 9.83333 61.6228 9.9375C61.4145 10.0365 61.2582 10.1667 61.1541 10.3281C61.0551 10.4896 61.0056 10.6667 61.0056 10.8594C61.0056 11 61.0317 11.1276 61.0838 11.2422C61.141 11.3516 61.2348 11.4531 61.365 11.5469C61.4952 11.6354 61.6723 11.7188 61.8963 11.7969C62.1254 11.875 62.4119 11.9505 62.7556 12.0234C63.4015 12.1589 63.9561 12.3333 64.4197 12.5469C64.8884 12.7552 65.2478 13.026 65.4978 13.3594C65.7478 13.6875 65.8728 14.1042 65.8728 14.6094C65.8728 14.9844 65.7921 15.3281 65.6306 15.6406C65.4744 15.9479 65.2452 16.2161 64.9431 16.4453C64.641 16.6693 64.2791 16.8438 63.8572 16.9688C63.4405 17.0938 62.9718 17.1562 62.4509 17.1562C61.6853 17.1562 61.0369 17.0208 60.5056 16.75C59.9744 16.474 59.5707 16.1224 59.2947 15.6953C59.0239 15.263 58.8884 14.8151 58.8884 14.3516H60.7088C60.7296 14.7005 60.8259 14.9792 60.9978 15.1875C61.1749 15.3906 61.3936 15.5391 61.6541 15.6328C61.9197 15.7214 62.1931 15.7656 62.4744 15.7656C62.8129 15.7656 63.0968 15.7214 63.3259 15.6328C63.5551 15.5391 63.7296 15.4141 63.8494 15.2578C63.9692 15.0964 64.0291 14.9141 64.0291 14.7109Z"/>
    </symbol>
    <symbol id="icon-frame-1-9-1172" viewBox="0 0 18 24">
      <g clip-path="url(#clip0_0_5)"><path d="M9 12C10.6575 12 12 10.6575 12 9C12 7.3425 10.6575 6 9 6C7.3425 6 6 7.3425 6 9C6 10.6575 7.3425 12 9 12ZM9 13.5C6.9975 13.5 3 14.505 3 16.5V17.25C3 17.6625 3.3375 18 3.75 18H14.25C14.6625 18 15 17.6625 15 17.25V16.5C15 14.505 11.0025 13.5 9 13.5Z"/></g><line x1="18.625" y1="3.625" x2="18.625" y2="20.375" stroke-width="1.25" stroke-linecap="round"/><defs><clipPath id="clip0_0_5"><rect width="18" height="18" transform="translate(0 3)"/></clipPath></defs>
    </symbol>
    <symbol id="icon-person-black-18dp-1-9-1139" viewBox="0 0 18 18">
      <g clip-path="url(#clip0_0_6)"><path d="M9 9C10.6575 9 12 7.6575 12 6C12 4.3425 10.6575 3 9 3C7.3425 3 6 4.3425 6 6C6 7.6575 7.3425 9 9 9ZM9 10.5C6.9975 10.5 3 11.505 3 13.5V14.25C3 14.6625 3.3375 15 3.75 15H14.25C14.6625 15 15 14.6625 15 14.25V13.5C15 11.505 11.0025 10.5 9 10.5Z"/></g><defs><clipPath id="clip0_0_6"><rect width="18" height="18"/></clipPath></defs>
    </symbol>
    <symbol id="icon-phone-black-18dp-2-10543" viewBox="0 0 18 24">
      <g clip-path="url(#clip0_297092_10543)"><path d="M14.7263 13.8651L12.8881 13.6552C12.4467 13.6046 12.0125 13.7566 11.7013 14.0677L10.3697 15.3993C8.3217 14.3572 6.64276 12.6855 5.60067 10.6303L6.93947 9.29144C7.25065 8.98025 7.40263 8.54605 7.35197 8.1046L7.1421 6.28092C7.05526 5.55 6.44013 5 5.70198 5H4.45002C3.63226 5 2.952 5.68026 3.00266 6.49802C3.38621 12.6783 8.32894 17.6138 14.5019 17.9973C15.3197 18.048 15.9999 17.3677 15.9999 16.55V15.298C16.0072 14.5671 15.4572 13.952 14.7263 13.8651Z"/></g><defs><clipPath id="clip0_297092_10543"><rect width="18" height="24"/></clipPath></defs>
    </symbol>
    <symbol id="icon-email-black-18dp-2-10546" viewBox="0 0 18 24">
      <g clip-path="url(#clip0_297092_10546)"><path d="M15 6H3C2.175 6 1.5075 6.675 1.5075 7.5L1.5 16.5C1.5 17.325 2.175 18 3 18H15C15.825 18 16.5 17.325 16.5 16.5V7.5C16.5 6.675 15.825 6 15 6ZM14.7 9.1875L9.3975 12.5025C9.1575 12.6525 8.8425 12.6525 8.6025 12.5025L3.3 9.1875C3.1125 9.0675 3 8.865 3 8.6475C3 8.145 3.5475 7.845 3.975 8.1075L9 11.25L14.025 8.1075C14.4525 7.845 15 8.145 15 8.6475C15 8.865 14.8875 9.0675 14.7 9.1875Z"/></g><defs><clipPath id="clip0_297092_10546"><rect width="18" height="24"/></clipPath></defs>
    </symbol>
    <symbol id="icon-close-black-18dp-2-1-24-946" viewBox="0 0 8 8">
      <g clip-path="url(#clip0_0_4)"><path d="M8 0.805714L7.19429 0L4 3.19429L0.805714 0L0 0.805714L3.19429 4L0 7.19429L0.805714 8L4 4.80571L7.19429 8L8 7.19429L4.80571 4L8 0.805714Z"/></g><defs><clipPath id="clip0_0_4"><rect width="8" height="8"/></clipPath></defs>
    </symbol>
    <symbol id="icon-contacts-1-1161" viewBox="0 0 67 52">
      <path d="M7.875 13.2969H9.82812C9.76562 14.0417 9.55729 14.7057 9.20312 15.2891C8.84896 15.8672 8.35156 16.3229 7.71094 16.6562C7.07031 16.9896 6.29167 17.1562 5.375 17.1562C4.67188 17.1562 4.03906 17.0312 3.47656 16.7812C2.91406 16.526 2.43229 16.1667 2.03125 15.7031C1.63021 15.2344 1.32292 14.6693 1.10938 14.0078C0.901042 13.3464 0.796875 12.6068 0.796875 11.7891V10.8438C0.796875 10.026 0.903646 9.28646 1.11719 8.625C1.33594 7.96354 1.64844 7.39844 2.05469 6.92969C2.46094 6.45573 2.94792 6.09375 3.51562 5.84375C4.08854 5.59375 4.73177 5.46875 5.44531 5.46875C6.35156 5.46875 7.11719 5.63542 7.74219 5.96875C8.36719 6.30208 8.85156 6.76302 9.19531 7.35156C9.54427 7.9401 9.75781 8.61458 9.83594 9.375H7.88281C7.83073 8.88542 7.71615 8.46615 7.53906 8.11719C7.36719 7.76823 7.11198 7.5026 6.77344 7.32031C6.4349 7.13281 5.99219 7.03906 5.44531 7.03906C4.9974 7.03906 4.60677 7.1224 4.27344 7.28906C3.9401 7.45573 3.66146 7.70052 3.4375 8.02344C3.21354 8.34635 3.04427 8.74479 2.92969 9.21875C2.82031 9.6875 2.76562 10.224 2.76562 10.8281V11.7891C2.76562 12.362 2.8151 12.8828 2.91406 13.3516C3.01823 13.8151 3.17448 14.2135 3.38281 14.5469C3.59635 14.8802 3.86719 15.138 4.19531 15.3203C4.52344 15.5026 4.91667 15.5938 5.375 15.5938C5.93229 15.5938 6.38281 15.5052 6.72656 15.3281C7.07552 15.151 7.33854 14.8932 7.51562 14.5547C7.69792 14.2109 7.81771 13.7917 7.875 13.2969ZM11.3825 12.8672V12.6875C11.3825 12.0781 11.471 11.513 11.6481 10.9922C11.8252 10.4661 12.0804 10.0104 12.4137 9.625C12.7523 9.23438 13.1637 8.93229 13.6481 8.71875C14.1377 8.5 14.6898 8.39062 15.3044 8.39062C15.9242 8.39062 16.4762 8.5 16.9606 8.71875C17.4502 8.93229 17.8643 9.23438 18.2028 9.625C18.5414 10.0104 18.7992 10.4661 18.9762 10.9922C19.1533 11.513 19.2419 12.0781 19.2419 12.6875V12.8672C19.2419 13.4766 19.1533 14.0417 18.9762 14.5625C18.7992 15.0833 18.5414 15.5391 18.2028 15.9297C17.8643 16.3151 17.4528 16.6172 16.9684 16.8359C16.4841 17.0495 15.9346 17.1562 15.32 17.1562C14.7002 17.1562 14.1455 17.0495 13.6559 16.8359C13.1716 16.6172 12.7601 16.3151 12.4216 15.9297C12.083 15.5391 11.8252 15.0833 11.6481 14.5625C11.471 14.0417 11.3825 13.4766 11.3825 12.8672ZM13.2653 12.6875V12.8672C13.2653 13.2474 13.3044 13.6068 13.3825 13.9453C13.4606 14.2839 13.583 14.5807 13.7497 14.8359C13.9164 15.0911 14.1299 15.2917 14.3903 15.4375C14.6507 15.5833 14.9606 15.6562 15.32 15.6562C15.669 15.6562 15.971 15.5833 16.2262 15.4375C16.4867 15.2917 16.7002 15.0911 16.8669 14.8359C17.0335 14.5807 17.1559 14.2839 17.2341 13.9453C17.3174 13.6068 17.3591 13.2474 17.3591 12.8672V12.6875C17.3591 12.3125 17.3174 11.9583 17.2341 11.625C17.1559 11.2865 17.0309 10.987 16.8591 10.7266C16.6924 10.4661 16.4789 10.263 16.2184 10.1172C15.9632 9.96615 15.6585 9.89062 15.3044 9.89062C14.9502 9.89062 14.6429 9.96615 14.3825 10.1172C14.1273 10.263 13.9164 10.4661 13.7497 10.7266C13.583 10.987 13.4606 11.2865 13.3825 11.625C13.3044 11.9583 13.2653 12.3125 13.2653 12.6875ZM23.0072 10.3516V17H21.1244V8.54688H22.8978L23.0072 10.3516ZM22.6712 12.4609L22.0619 12.4531C22.0671 11.8542 22.1504 11.3047 22.3119 10.8047C22.4785 10.3047 22.7077 9.875 22.9994 9.51562C23.2962 9.15625 23.6504 8.88021 24.0619 8.6875C24.4733 8.48958 24.9317 8.39062 25.4369 8.39062C25.8431 8.39062 26.2103 8.44792 26.5384 8.5625C26.8718 8.67188 27.1556 8.85156 27.39 9.10156C27.6296 9.35156 27.8119 9.67708 27.9369 10.0781C28.0619 10.474 28.1244 10.9609 28.1244 11.5391V17H26.2337V11.5312C26.2337 11.125 26.1739 10.8047 26.0541 10.5703C25.9395 10.3307 25.7702 10.1615 25.5462 10.0625C25.3275 9.95833 25.0541 9.90625 24.7259 9.90625C24.403 9.90625 24.114 9.97396 23.8587 10.1094C23.6035 10.2448 23.3874 10.4297 23.2103 10.6641C23.0384 10.8984 22.9056 11.1693 22.8119 11.4766C22.7181 11.7839 22.6712 12.112 22.6712 12.4609ZM34.2412 8.54688V9.92188H29.4756V8.54688H34.2412ZM30.8506 6.47656H32.7334V14.6641C32.7334 14.9245 32.7699 15.125 32.8428 15.2656C32.9209 15.401 33.0277 15.4922 33.1631 15.5391C33.2985 15.5859 33.4574 15.6094 33.6397 15.6094C33.7699 15.6094 33.8949 15.6016 34.0147 15.5859C34.1345 15.5703 34.2308 15.5547 34.3037 15.5391L34.3116 16.9766C34.1553 17.0234 33.973 17.0651 33.7647 17.1016C33.5616 17.138 33.3272 17.1562 33.0616 17.1562C32.6293 17.1562 32.2465 17.0807 31.9131 16.9297C31.5798 16.7734 31.3194 16.5208 31.1319 16.1719C30.9444 15.8229 30.8506 15.3594 30.8506 14.7812V6.47656ZM40.78 15.3047V11.2734C40.78 10.9714 40.7253 10.7109 40.6159 10.4922C40.5066 10.2734 40.3399 10.1042 40.1159 9.98438C39.8972 9.86458 39.6211 9.80469 39.2878 9.80469C38.9805 9.80469 38.7149 9.85677 38.4909 9.96094C38.267 10.0651 38.0925 10.2057 37.9675 10.3828C37.8425 10.5599 37.78 10.7604 37.78 10.9844H35.905C35.905 10.651 35.9857 10.3281 36.1472 10.0156C36.3086 9.70312 36.543 9.42448 36.8503 9.17969C37.1576 8.9349 37.5248 8.74219 37.9519 8.60156C38.379 8.46094 38.8581 8.39062 39.3894 8.39062C40.0248 8.39062 40.5873 8.4974 41.0769 8.71094C41.5717 8.92448 41.9597 9.2474 42.2409 9.67969C42.5274 10.1068 42.6706 10.6432 42.6706 11.2891V15.0469C42.6706 15.4323 42.6967 15.7786 42.7487 16.0859C42.806 16.388 42.8868 16.651 42.9909 16.875V17H41.0612C40.9727 16.7969 40.9024 16.5391 40.8503 16.2266C40.8034 15.9089 40.78 15.6016 40.78 15.3047ZM41.0534 11.8594L41.0691 13.0234H39.7175C39.3685 13.0234 39.0612 13.0573 38.7956 13.125C38.53 13.1875 38.3086 13.2812 38.1316 13.4062C37.9545 13.5312 37.8217 13.6823 37.7331 13.8594C37.6446 14.0365 37.6003 14.237 37.6003 14.4609C37.6003 14.6849 37.6524 14.8906 37.7566 15.0781C37.8607 15.2604 38.0118 15.4036 38.2097 15.5078C38.4128 15.612 38.6576 15.6641 38.9441 15.6641C39.3295 15.6641 39.6654 15.5859 39.9519 15.4297C40.2435 15.2682 40.4727 15.0729 40.6394 14.8438C40.806 14.6094 40.8946 14.388 40.905 14.1797L41.5144 15.0156C41.4519 15.2292 41.3451 15.4583 41.1941 15.7031C41.043 15.9479 40.8451 16.1823 40.6003 16.4062C40.3607 16.625 40.0717 16.8047 39.7331 16.9453C39.3998 17.0859 39.0144 17.1562 38.5769 17.1562C38.0248 17.1562 37.5326 17.0469 37.1003 16.8281C36.668 16.6042 36.3295 16.3047 36.0847 15.9297C35.8399 15.5495 35.7175 15.1198 35.7175 14.6406C35.7175 14.1927 35.8008 13.7969 35.9675 13.4531C36.1394 13.1042 36.3894 12.8125 36.7175 12.5781C37.0508 12.3438 37.4571 12.1667 37.9362 12.0469C38.4154 11.9219 38.9623 11.8594 39.5769 11.8594H41.0534ZM48.4125 15.6562C48.7198 15.6562 48.9958 15.5964 49.2406 15.4766C49.4906 15.3516 49.6911 15.1797 49.8422 14.9609C49.9984 14.7422 50.0844 14.4896 50.1 14.2031H51.8734C51.863 14.75 51.7016 15.2474 51.3891 15.6953C51.0766 16.1432 50.6625 16.5 50.1469 16.7656C49.6312 17.026 49.0609 17.1562 48.4359 17.1562C47.7901 17.1562 47.2276 17.0469 46.7484 16.8281C46.2693 16.6042 45.8708 16.2969 45.5531 15.9062C45.2354 15.5156 44.9958 15.0651 44.8344 14.5547C44.6781 14.0443 44.6 13.4974 44.6 12.9141V12.6406C44.6 12.0573 44.6781 11.5104 44.8344 11C44.9958 10.4844 45.2354 10.0312 45.5531 9.64062C45.8708 9.25 46.2693 8.94531 46.7484 8.72656C47.2276 8.5026 47.7875 8.39062 48.4281 8.39062C49.1052 8.39062 49.699 8.52604 50.2094 8.79688C50.7198 9.0625 51.1208 9.4349 51.4125 9.91406C51.7094 10.388 51.863 10.9401 51.8734 11.5703H50.1C50.0844 11.2578 50.0062 10.9766 49.8656 10.7266C49.7302 10.4714 49.5375 10.2682 49.2875 10.1172C49.0427 9.96615 48.7484 9.89062 48.4047 9.89062C48.0245 9.89062 47.7094 9.96875 47.4594 10.125C47.2094 10.276 47.0141 10.4844 46.8734 10.75C46.7328 11.0104 46.6312 11.3047 46.5687 11.6328C46.5115 11.9557 46.4828 12.2917 46.4828 12.6406V12.9141C46.4828 13.263 46.5115 13.6016 46.5687 13.9297C46.626 14.2578 46.725 14.5521 46.8656 14.8125C47.0115 15.0677 47.2094 15.2734 47.4594 15.4297C47.7094 15.5807 48.0271 15.6562 48.4125 15.6562ZM57.5137 8.54688V9.92188H52.7481V8.54688H57.5137ZM54.1231 6.47656H56.0059V14.6641C56.0059 14.9245 56.0424 15.125 56.1153 15.2656C56.1934 15.401 56.3002 15.4922 56.4356 15.5391C56.571 15.5859 56.7299 15.6094 56.9122 15.6094C57.0424 15.6094 57.1674 15.6016 57.2872 15.5859C57.407 15.5703 57.5033 15.5547 57.5762 15.5391L57.5841 16.9766C57.4278 17.0234 57.2455 17.0651 57.0372 17.1016C56.8341 17.138 56.5997 17.1562 56.3341 17.1562C55.9018 17.1562 55.519 17.0807 55.1856 16.9297C54.8523 16.7734 54.5919 16.5208 54.4044 16.1719C54.2169 15.8229 54.1231 15.3594 54.1231 14.7812V6.47656ZM64.0291 14.7109C64.0291 14.5234 63.9822 14.3542 63.8884 14.2031C63.7947 14.0469 63.615 13.9062 63.3494 13.7812C63.089 13.6562 62.7035 13.5417 62.1931 13.4375C61.7452 13.3385 61.3338 13.2214 60.9588 13.0859C60.589 12.9453 60.2713 12.776 60.0056 12.5781C59.74 12.3802 59.5343 12.1458 59.3884 11.875C59.2426 11.6042 59.1697 11.2917 59.1697 10.9375C59.1697 10.5938 59.2452 10.2682 59.3963 9.96094C59.5473 9.65365 59.7634 9.38281 60.0447 9.14844C60.3259 8.91406 60.6671 8.72917 61.0681 8.59375C61.4744 8.45833 61.9275 8.39062 62.4275 8.39062C63.1358 8.39062 63.7426 8.51042 64.2478 8.75C64.7582 8.98438 65.1489 9.30469 65.4197 9.71094C65.6905 10.112 65.8259 10.5651 65.8259 11.0703H63.9431C63.9431 10.8464 63.8858 10.638 63.7713 10.4453C63.6619 10.2474 63.4952 10.0885 63.2713 9.96875C63.0473 9.84375 62.766 9.78125 62.4275 9.78125C62.1046 9.78125 61.8364 9.83333 61.6228 9.9375C61.4145 10.0365 61.2582 10.1667 61.1541 10.3281C61.0551 10.4896 61.0056 10.6667 61.0056 10.8594C61.0056 11 61.0317 11.1276 61.0838 11.2422C61.141 11.3516 61.2348 11.4531 61.365 11.5469C61.4952 11.6354 61.6723 11.7188 61.8963 11.7969C62.1254 11.875 62.4119 11.9505 62.7556 12.0234C63.4015 12.1589 63.9561 12.3333 64.4197 12.5469C64.8884 12.7552 65.2478 13.026 65.4978 13.3594C65.7478 13.6875 65.8728 14.1042 65.8728 14.6094C65.8728 14.9844 65.7921 15.3281 65.6306 15.6406C65.4744 15.9479 65.2452 16.2161 64.9431 16.4453C64.641 16.6693 64.2791 16.8438 63.8572 16.9688C63.4405 17.0938 62.9718 17.1562 62.4509 17.1562C61.6853 17.1562 61.0369 17.0208 60.5056 16.75C59.9744 16.474 59.5707 16.1224 59.2947 15.6953C59.0239 15.263 58.8884 14.8151 58.8884 14.3516H60.7088C60.7296 14.7005 60.8259 14.9792 60.9978 15.1875C61.1749 15.3906 61.3936 15.5391 61.6541 15.6328C61.9197 15.7214 62.1931 15.7656 62.4744 15.7656C62.8129 15.7656 63.0968 15.7214 63.3259 15.6328C63.5551 15.5391 63.7296 15.4141 63.8494 15.2578C63.9692 15.0964 64.0291 14.9141 64.0291 14.7109Z"/>
    </symbol>
    <symbol id="icon-phone-black-18dp-1-5-5425" viewBox="0 0 18 24">
      <g clip-path="url(#clip0_302815_5425)"><path d="M14.7263 13.8651L12.8881 13.6552C12.4467 13.6046 12.0125 13.7566 11.7013 14.0677L10.3697 15.3993C8.3217 14.3572 6.64276 12.6855 5.60067 10.6303L6.93947 9.29144C7.25065 8.98025 7.40263 8.54605 7.35197 8.1046L7.1421 6.28092C7.05526 5.55 6.44013 5 5.70198 5H4.45002C3.63226 5 2.952 5.68026 3.00266 6.49802C3.38621 12.6783 8.32894 17.6138 14.5019 17.9973C15.3197 18.048 15.9999 17.3677 15.9999 16.55V15.298C16.0072 14.5671 15.4572 13.952 14.7263 13.8651Z"/></g><defs><clipPath id="clip0_302815_5425"><rect width="18" height="24"/></clipPath></defs>
    </symbol>
    <symbol id="icon-email-black-18dp-1-5-5431" viewBox="0 0 18 24">
      <g clip-path="url(#clip0_302815_5431)"><path d="M15 6H3C2.175 6 1.5075 6.675 1.5075 7.5L1.5 16.5C1.5 17.325 2.175 18 3 18H15C15.825 18 16.5 17.325 16.5 16.5V7.5C16.5 6.675 15.825 6 15 6ZM14.7 9.1875L9.3975 12.5025C9.1575 12.6525 8.8425 12.6525 8.6025 12.5025L3.3 9.1875C3.1125 9.0675 3 8.865 3 8.6475C3 8.145 3.5475 7.845 3.975 8.1075L9 11.25L14.025 8.1075C14.4525 7.845 15 8.145 15 8.6475C15 8.865 14.8875 9.0675 14.7 9.1875Z"/></g><defs><clipPath id="clip0_302815_5431"><rect width="18" height="24"/></clipPath></defs>
    </symbol>
    <symbol id="icon-finger-2-2015" viewBox="0 0 16 16">
      <path d="M13.3333 6C13.0872 6 12.8564 6.06706 12.6581 6.18391C12.5836 5.51856 12.0178 5 11.3333 5C11.0077 5 10.7086 5.11784 10.4762 5.31413C10.2428 4.92644 9.81794 4.66666 9.33325 4.66666C9.09075 4.66666 8.86288 4.73175 8.6666 4.84569V1.33334C8.66656 0.597969 8.0686 0 7.33325 0C6.59791 0 5.99991 0.597969 5.99991 1.33334V10.2546C5.99991 10.4225 5.88922 10.5088 5.84169 10.5381C5.79416 10.5674 5.66622 10.6276 5.51747 10.5527L3.37685 9.48244C3.18185 9.38478 2.96344 9.33334 2.74535 9.33334C1.96669 9.33334 1.33325 9.96681 1.33325 10.7455V11C1.33325 11.0924 1.37166 11.1807 1.43903 11.2438L5.28638 14.8346C6.09169 15.5859 7.14185 16 8.24306 16H10.3332C12.7225 16 14.6666 14.056 14.6666 11.6667V7.33334C14.6666 6.59797 14.0686 6 13.3333 6ZM13.9999 11.6667C13.9999 13.6885 12.3551 15.3333 10.3333 15.3333H8.2431C7.31144 15.3333 6.42278 14.9831 5.74147 14.347L1.99991 10.8552V10.7455C1.99991 10.3343 2.33422 10 2.74535 10C2.86025 10 2.97581 10.0273 3.07869 10.0788L5.21931 11.1491C5.5315 11.3057 5.89541 11.2884 6.19228 11.1055C6.48916 10.9219 6.66656 10.6038 6.66656 10.2546V1.33334C6.66656 0.965844 6.96572 0.666687 7.33322 0.666687C7.70072 0.666687 7.99988 0.965844 7.99988 1.33334V6.33334C7.99988 6.51759 8.14897 6.66669 8.33322 6.66669C8.51747 6.66669 8.66656 6.51759 8.66656 6.33334V6C8.66656 5.6325 8.96572 5.33334 9.33322 5.33334C9.70072 5.33334 9.99988 5.6325 9.99988 6V6.33334C9.99988 6.334 9.99988 6.33466 9.99988 6.33531V6.33563C10.0012 6.51856 10.1499 6.66669 10.3332 6.66669C10.5175 6.66669 10.6666 6.51759 10.6666 6.33334V6.32812C10.6692 5.96322 10.968 5.66666 11.3332 5.66666C11.7007 5.66666 11.9999 5.96581 11.9999 6.33331V7.33331C11.9999 7.51756 12.149 7.66666 12.3332 7.66666C12.5175 7.66666 12.6666 7.51756 12.6666 7.33331C12.6666 6.96581 12.9657 6.66666 13.3332 6.66666C13.7007 6.66666 13.9999 6.96581 13.9999 7.33334V11.6667Z"/>
    </symbol>
    <symbol id="icon-astronaut-1-5-5468" viewBox="0 0 64 64">
      <path d="M63.9481 9.04812C63.8222 8.66299 63.4894 8.38149 63.0873 8.32274L59.2665 7.76698L57.5566 4.30455C57.1982 3.57492 56.0025 3.57492 55.6441 4.30455L53.9342 7.76698L50.1132 8.32286C49.7111 8.38149 49.3784 8.66212 49.2514 9.04825C49.1266 9.43438 49.23 9.85889 49.5212 10.1416L52.2872 12.8372L51.6344 16.6431C51.5661 17.0431 51.7304 17.4474 52.0579 17.6864C52.3897 17.9275 52.8227 17.9573 53.1822 17.7674L56.5998 15.97L60.0175 17.7674C60.1733 17.8495 60.345 17.89 60.5146 17.89C60.7354 17.89 60.9563 17.8218 61.1419 17.6863C61.4704 17.4474 61.6347 17.043 61.5654 16.643L60.9127 12.8371L63.6786 10.1415C63.9683 9.85776 64.073 9.43425 63.9481 9.04812ZM59.0223 11.702C58.7716 11.9463 58.6564 12.3004 58.7161 12.6461L59.098 14.8743L57.097 13.8226C56.9412 13.7404 56.7706 13.6999 56.5998 13.6999C56.4292 13.6999 56.2596 13.7404 56.1027 13.8226L54.1016 14.8743L54.4834 12.6461C54.5432 12.3004 54.4279 11.9474 54.1773 11.702L52.557 10.1234L54.7949 9.79801C55.1427 9.74788 55.4424 9.52926 55.5982 9.2145L56.5987 7.18785L57.5992 9.2145C57.755 9.52913 58.0547 9.74788 58.4025 9.79801L60.6404 10.1234L59.0223 11.702Z"/><path d="M52.267 41.0444H50.1335V43.1778H52.267V41.0444Z"/><path d="M52.267 45.3112H50.1335V47.4445H52.267V45.3112Z"/><path d="M54.4004 43.1777H52.267V45.3111H54.4004V43.1777Z"/><path d="M50.1337 43.1777H48.0002V45.3111H50.1337V43.1777Z"/><path d="M44.8001 52.778H42.6667V54.9113H44.8001V52.778Z"/><path d="M44.8001 57.0447H42.6667V59.1781H44.8001V57.0447Z"/><path d="M46.9336 54.9114H44.8002V57.0448H46.9336V54.9114Z"/><path d="M42.6667 54.9114H40.5333V57.0448H42.6667V54.9114Z"/><path d="M32 48.5112H29.8666V50.6446H32V48.5112Z"/><path d="M32 52.778H29.8666V54.9113H32V52.778Z"/><path d="M34.1334 50.6445H32V52.7779H34.1334V50.6445Z"/><path d="M29.8666 50.6445H27.7332V52.7779H29.8666V50.6445Z"/><path d="M11.733 12.2439H9.59961V14.3773H11.733V12.2439Z"/><path d="M11.733 16.5107H9.59961V18.6442H11.733V16.5107Z"/><path d="M13.8663 14.3773H11.7329V16.5107H13.8663V14.3773Z"/><path d="M9.59971 14.3773H7.46631V16.5107H9.59971V14.3773Z"/><path d="M49.4295 28.3189C48.8546 27.5434 48.0109 27.0443 47.053 26.9098C46.0908 26.7733 45.1414 27.026 44.3734 27.6138L41.8699 29.5327L41.8688 29.5338L38.0734 32.368L35.3577 31.2863C40.2004 29.1135 43.585 24.2697 43.585 18.6461C43.585 11.0001 37.3396 4.7793 29.6627 4.7793C21.9858 4.7793 15.7405 11.0001 15.7405 18.6461C15.7405 21.4174 16.5692 23.9945 17.9805 26.163L12.4529 26.115C12.4497 26.115 12.4465 26.115 12.4433 26.115C12.4262 26.115 12.4124 26.1235 12.3964 26.1246C12.2908 26.1289 12.1873 26.1503 12.086 26.1865C12.0604 26.1961 12.0338 26.2015 12.0093 26.2131C11.9965 26.2185 11.9837 26.2195 11.9709 26.2259L5.50468 29.4184C5.50356 29.4184 5.50256 29.4184 5.50256 29.4194L1.71575 31.2405C1.67412 31.2586 1.6315 31.2831 1.58987 31.3108C0.0804746 32.3156 -0.433659 34.289 0.393104 35.9018C0.833611 36.7594 1.5835 37.3909 2.50514 37.6799C2.86039 37.7908 3.22302 37.8453 3.58353 37.8453C4.16279 37.8453 4.73667 37.7034 5.26243 37.4229L8.03798 35.9466L12.566 33.6085L15.2797 33.5925L4.39629 44.4237C4.39529 44.4248 4.39417 44.4248 4.39304 44.4258L1.71563 47.0924C1.08312 47.7218 0.73536 48.557 0.73536 49.4477C0.73536 50.3374 1.08312 51.1746 1.71563 51.8051C2.36526 52.4515 3.21965 52.7758 4.07404 52.7758C4.92955 52.7758 5.78281 52.4515 6.43457 51.8051L9.06287 49.1875L12.5445 46.5879L14.3462 48.3821L10.8229 51.8904C10.8219 51.8915 10.8208 51.8915 10.8196 51.8925L8.14223 54.5592C7.50972 55.1886 7.16196 56.0237 7.16196 56.9145C7.16196 57.8041 7.50972 58.6414 8.14223 59.2719C8.79186 59.9183 9.64738 60.2425 10.5018 60.2425C11.3562 60.2425 12.2117 59.9183 12.8623 59.2719L15.5407 56.6052L19.8255 52.3385C19.8267 52.3374 19.8267 52.3364 19.8277 52.3353L21.8469 50.3352L21.8394 50.3277C21.8522 50.315 21.8703 50.3106 21.8832 50.2969L32.2151 38.9804L39.1571 39.9682C39.2072 39.9757 39.2573 39.9788 39.3075 39.9788C39.4366 39.9788 39.5613 39.948 39.6819 39.9021C39.7171 39.8893 39.748 39.8722 39.7811 39.8552C39.8195 39.836 39.86 39.8253 39.8964 39.8008L46.3231 35.5341C46.3466 35.5181 46.3593 35.4925 46.3817 35.4755C46.4073 35.4553 46.4393 35.4468 46.4627 35.4243L49.0056 33.0424C50.3288 31.8026 50.5111 29.7717 49.4295 28.3189ZM4.26079 35.5403C3.91416 35.7259 3.52053 35.7631 3.14402 35.6438C2.77064 35.5275 2.46776 35.2725 2.29063 34.928C1.9685 34.3008 2.15513 33.537 2.71939 33.1242L5.34668 31.8602L5.97919 33.7087L6.24482 34.4853L4.26079 35.5403ZM11.255 31.8848L8.15848 33.4849L7.64759 31.9915L7.28071 30.9183L11.3342 28.9172L11.255 31.8848ZM41.4539 18.644C41.4539 20.4808 41.0155 22.2132 40.256 23.763L31.8932 19.9645C31.8057 18.8179 31.2106 17.8141 30.3167 17.189L33.2447 7.46834C38.0001 8.98099 41.4539 13.4173 41.4539 18.644ZM17.876 18.644C17.876 12.1745 23.1646 6.91045 29.6649 6.91045C30.1706 6.91045 30.6655 6.95308 31.1551 7.01496L28.291 16.5224C28.2527 16.5212 28.2164 16.5106 28.1769 16.5106C26.1118 16.5106 24.4317 18.1853 24.4317 20.244C24.4317 22.3027 26.1118 23.9775 28.1769 23.9775C29.5657 23.9775 30.7657 23.2106 31.4132 22.0883L39.1381 25.5977C36.9887 28.4905 33.5486 30.3776 29.6648 30.3776C23.1646 30.3776 17.876 25.1135 17.876 18.644ZM29.7887 20.244C29.7887 21.1262 29.0654 21.8441 28.1769 21.8441C27.2884 21.8441 26.5651 21.1262 26.5651 20.244C26.5651 19.3619 27.2884 18.644 28.1769 18.644C29.0654 18.644 29.7887 19.3619 29.7887 20.244ZM4.92968 50.2925C4.45717 50.7608 3.69228 50.7598 3.2209 50.2936C2.99365 50.0664 2.86889 49.7667 2.86889 49.4477C2.86889 49.1299 2.99365 48.8301 3.2209 48.6051L5.14505 46.6882L6.84746 48.3832L4.92968 50.2925ZM11.3574 57.7594C10.8849 58.2276 10.119 58.2287 9.6475 57.7605C9.42025 57.5332 9.29549 57.2336 9.29549 56.9146C9.29549 56.5967 9.42025 56.297 9.6475 56.072L11.5729 54.1541L12.3783 54.9552L13.2764 55.8491L11.3574 57.7594ZM18.3208 50.8216C18.3196 50.8226 18.3186 50.8226 18.3175 50.8238L14.7878 54.3438L13.9824 53.5427L13.0843 52.6488L16.6107 49.1384C16.6107 49.1384 16.6107 49.1384 16.6107 49.1374C16.6119 49.1362 16.6129 49.1362 16.614 49.1352C16.694 49.0552 16.7441 48.9592 16.7932 48.8643C16.8071 48.8366 16.8337 48.8131 16.8455 48.7843C16.8786 48.7022 16.8839 48.6137 16.8967 48.5272C16.9031 48.4781 16.9245 48.4323 16.9245 48.3821C16.9245 48.3106 16.8989 48.2413 16.884 48.1708C16.8712 48.1068 16.8712 48.0417 16.8466 47.98C16.8061 47.8797 16.7367 47.7912 16.6642 47.7047C16.644 47.6812 16.6365 47.6513 16.6141 47.629C16.6141 47.629 16.6141 47.629 16.613 47.629C16.6119 47.628 16.6119 47.6257 16.6109 47.6247L13.3969 44.4247C13.3628 44.3905 13.3191 44.3767 13.2807 44.3479C13.2242 44.3042 13.1698 44.2637 13.1068 44.2327C13.0461 44.2028 12.9842 44.1847 12.9202 44.1675C12.8519 44.1483 12.7858 44.1334 12.7143 44.128C12.6492 44.1238 12.5884 44.1302 12.5234 44.1377C12.4519 44.1462 12.3848 44.1558 12.3154 44.1782C12.2482 44.1995 12.1885 44.2325 12.1267 44.2678C12.0872 44.2902 12.0424 44.2977 12.005 44.3254L8.45836 46.9729L6.6567 45.1788L11.4547 40.4065L20.1759 48.9837L18.3208 50.8216ZM31.9584 36.7883C31.9275 36.784 31.8986 36.7958 31.8677 36.7937C31.7898 36.7894 31.7152 36.7948 31.6373 36.8075C31.5766 36.8182 31.519 36.8299 31.4613 36.8502C31.3931 36.8737 31.3312 36.9057 31.2682 36.944C31.2085 36.9803 31.1541 37.0187 31.1018 37.0667C31.0762 37.089 31.0453 37.0998 31.0218 37.1253L21.6253 47.4167L12.9692 38.9034L18.6354 33.2671C19.0525 32.8511 19.0546 32.1758 18.6386 31.7577C18.4285 31.5476 18.1523 31.4441 17.876 31.4452V31.4442L13.4386 31.4708L13.4941 28.2559L19.7022 28.3093C22.2323 30.8971 25.7609 32.511 29.6649 32.511C30.5396 32.511 31.393 32.4203 32.2239 32.2656C32.3039 32.3296 32.3827 32.3947 32.4831 32.4352L37.3024 34.3553L37.6074 35.872L37.9637 37.6427L31.9584 36.7883ZM40.0406 37.1445L39.4145 34.0287L42.3073 31.8687L43.0647 32.8735L44.2007 34.3818L40.0406 37.1445ZM47.5478 31.4826L45.8721 33.0527L44.0097 30.5802L45.6726 29.3055C45.9829 29.0667 46.3745 28.9695 46.7585 29.0197C47.1446 29.074 47.486 29.2757 47.7185 29.5882C48.1516 30.1717 48.078 30.9856 47.5478 31.4826Z"/><path d="M27.2041 37.0881L22.9182 32.8214C22.5033 32.4065 21.829 32.4065 21.413 32.8214L17.1282 37.0881C16.9277 37.2897 16.8146 37.5606 16.8146 37.8444C16.8146 38.1281 16.9266 38.4001 17.1282 38.6006L21.413 42.8673C21.621 43.0742 21.8942 43.1777 22.1662 43.1777C22.4382 43.1777 22.7112 43.0742 22.9182 42.8673L27.2041 38.6006C27.4046 38.4001 27.5187 38.1281 27.5187 37.8444C27.5187 37.5606 27.4056 37.2886 27.2041 37.0881ZM22.1662 40.606L19.3927 37.8444L22.1662 35.0827L24.9406 37.8444L22.1662 40.606Z"/><path d="M34.3285 10.1415L33.8132 12.213C33.9551 12.2483 37.2885 13.1165 37.2885 16.5107H39.4219C39.4218 12.4764 36.0906 10.5799 34.3285 10.1415Z"/><path d="M39.422 18.644H37.2886V20.7775H39.422V18.644Z"/>
    </symbol>
    <symbol id="icon-diagram-1-5-5537" viewBox="0 0 64 64">
      <g clip-path="url(#clip0_302815_5537)"><path d="M29.8511 29.9292H31.9833V39.5242H29.8511V29.9292Z"/><path d="M38.3799 34.1936H40.5121V39.5241H38.3799V34.1936Z"/><path d="M21.3223 37.392H23.4545V39.5242H21.3223V37.392Z"/><path d="M14.9255 36.3258H17.0578V39.5241H14.9255V36.3258Z"/><path d="M3.19833 56.5819H54.3715C56.1378 56.5819 57.5699 55.1499 57.5699 53.3836V49.1192C57.5699 47.3529 56.1378 45.9208 54.3715 45.9208H53.3054V19.3342L59.3611 13.5976C60.7666 14.2905 62.4678 13.8699 63.3876 12.6003C64.308 11.3311 64.1789 9.58361 63.0826 8.46336C61.9863 7.34311 60.2424 7.17601 58.953 8.06773C57.6641 8.95997 57.206 10.6513 57.8681 12.0719L53.3054 16.3972V13.9376C53.3054 12.1713 51.8734 10.7393 50.1071 10.7393H7.46276C5.6965 10.7393 4.26443 12.1713 4.26443 13.9376V45.9208H3.19833C1.43206 45.9208 0 47.3529 0 49.1192V53.3836C0 55.1499 1.43206 56.5819 3.19833 56.5819ZM60.7682 9.67314C61.3569 9.67314 61.8343 10.1505 61.8343 10.7393C61.8343 11.328 61.3569 11.8054 60.7682 11.8054C60.1794 11.8054 59.7021 11.328 59.7021 10.7393C59.7021 10.1505 60.1794 9.67314 60.7682 9.67314ZM6.39665 13.9376C6.39665 13.3488 6.874 12.8715 7.46276 12.8715H50.1071C50.6958 12.8715 51.1732 13.3488 51.1732 13.9376V18.4149L49.041 20.4409V16.0698C49.041 15.481 48.5636 15.0037 47.9749 15.0037H9.59498C9.00622 15.0037 8.52887 15.481 8.52887 16.0698V42.7225C8.52887 43.3113 9.00622 43.7886 9.59498 43.7886H47.9749C48.5636 43.7886 49.041 43.3113 49.041 42.7225V23.3738L51.1732 21.3535V45.9208H6.39665V13.9376ZM15.9916 27.797C14.5492 27.7928 13.2826 28.7538 12.899 30.1442C12.5153 31.5346 13.1093 33.0094 14.3498 33.7454C15.5898 34.4815 17.1697 34.2967 18.2061 33.2936L21.912 35.153C22.3425 35.3685 22.8646 35.2676 23.1847 34.9078L31.0624 26.0453L38.8062 31.848C39.2216 32.1593 39.8016 32.126 40.1784 31.7694L46.9088 25.3941V41.6564H10.6611V17.1359H46.9088V22.4566L39.3658 29.5997L31.5569 23.7455C31.1134 23.4133 30.4892 23.4758 30.1207 23.8897L22.1348 32.8751L19.1493 31.3821C19.1712 31.254 19.1847 31.1249 19.19 30.9953C19.19 29.2291 17.7579 27.797 15.9916 27.797ZM17.0577 30.9953C17.0577 31.5841 16.5804 32.0614 15.9916 32.0614C15.4029 32.0614 14.9255 31.5841 14.9255 30.9953C14.9255 30.4066 15.4029 29.9292 15.9916 29.9292C16.5804 29.9292 17.0577 30.4066 17.0577 30.9953ZM23.4544 48.0531H34.1155V49.1192C34.1155 49.7079 33.6381 50.1853 33.0494 50.1853H24.5205C23.9317 50.1853 23.4544 49.7079 23.4544 49.1192V48.0531ZM2.13222 49.1192C2.13222 48.5304 2.60957 48.0531 3.19833 48.0531H21.3222V49.1192C21.3222 50.8854 22.7542 52.3175 24.5205 52.3175H33.0494C34.8156 52.3175 36.2477 50.8854 36.2477 49.1192V48.0531H54.3715C54.9603 48.0531 55.4376 48.5304 55.4376 49.1192V53.3836C55.4376 53.9723 54.9603 54.4497 54.3715 54.4497H3.19833C2.60957 54.4497 2.13222 53.9723 2.13222 53.3836V49.1192Z"/></g><defs><clipPath id="clip0_302815_5537"><rect width="64" height="64"/></clipPath></defs>
    </symbol>
    <symbol id="icon-clock-1-5-5548" viewBox="0 0 64 64">
      <path d="M62.5933 30.6025C62.5899 13.6978 48.8828 -0.00341734 31.9775 6.39362e-07C15.0728 0.00341861 1.37158 13.7109 1.375 30.6157C1.37793 43.9316 9.98877 55.7178 22.6738 59.7681C22.7949 59.8062 22.9209 59.8257 23.0474 59.8252C23.2886 59.8247 23.5249 59.7603 23.7324 59.6377C24.0024 59.478 24.2041 59.2241 24.2988 58.9248L32.0288 34.4248C34.1421 34.4141 35.8462 32.6919 35.835 30.5791C35.8242 28.4658 34.1025 26.7617 31.9893 26.7725C31.4209 26.7749 30.8599 26.9058 30.3491 27.1553L20.1372 16.9419C19.6304 16.4526 18.8232 16.4668 18.334 16.9731C17.8564 17.4678 17.8564 18.251 18.334 18.7456L28.5405 28.9639C27.7573 30.5625 28.2051 32.4922 29.6133 33.582L22.248 56.9277C7.69238 51.5659 0.239258 35.4199 5.60108 20.8643C10.9629 6.30859 27.1089 -1.14453 41.6646 4.21729C56.2202 9.5791 63.6733 25.7256 58.3115 40.2808C55.6919 47.3921 50.3096 53.1431 43.3872 56.2275L42.5913 52.479C42.4458 51.79 41.7686 51.3496 41.0796 51.4956C40.8623 51.542 40.6606 51.6441 40.4946 51.792L32.8208 58.6431C32.2944 59.1113 32.2476 59.9175 32.7163 60.4439C32.8687 60.6148 33.064 60.7417 33.2827 60.8115L43.0801 63.9385C43.7505 64.1538 44.4688 63.7852 44.6841 63.1143C44.7524 62.9024 44.7637 62.6768 44.7178 62.459L43.9356 58.7808C55.2642 54.0049 62.6196 42.8965 62.5933 30.6025ZM31.9844 29.3272C32.6885 29.3272 33.2598 29.8984 33.2598 30.6025C33.2598 31.3071 32.6885 31.8779 31.9844 31.8779C31.2798 31.8779 30.709 31.3071 30.709 30.6025C30.709 29.8984 31.2798 29.3272 31.9844 29.3272ZM36.1851 59.0552L40.5532 55.1587L41.7588 60.8394L36.1851 59.0552Z"/><path d="M30.709 6.37012V8.9209C30.709 9.62549 31.2798 10.1963 31.9844 10.1963C32.6885 10.1963 33.2598 9.62549 33.2598 8.9209V6.37012C33.2598 5.66602 32.6885 5.09473 31.9844 5.09473C31.2798 5.09473 30.709 5.66602 30.709 6.37012Z"/><path d="M7.75195 29.3271C7.04736 29.3271 6.47656 29.8984 6.47656 30.6025C6.47656 31.3071 7.04736 31.8779 7.75195 31.8779H10.3027C11.0073 31.8779 11.5781 31.3071 11.5781 30.6025C11.5781 29.8984 11.0073 29.3271 10.3027 29.3271H7.75195Z"/><path d="M56.2163 31.8779C56.9209 31.8779 57.4917 31.3071 57.4917 30.6025C57.4917 29.8984 56.9209 29.3271 56.2163 29.3271H53.6655C52.9614 29.3271 52.3901 29.8984 52.3901 30.6025C52.3901 31.3071 52.9614 31.8779 53.6655 31.8779H56.2163Z"/>
    </symbol>
    <symbol id="icon-antenna-1-5-5558" viewBox="0 0 64 64">
      <path d="M61.5462 44.1952L44.6598 27.1851L46.5339 17.9541C47.0175 18.1429 47.5316 18.2416 48.0507 18.2453H48.0635C50.448 18.2735 52.4039 16.3633 52.4322 13.9788C52.4604 11.5943 50.5502 9.6384 48.1656 9.61013C45.7811 9.582 43.8252 11.4921 43.797 13.8767C43.791 14.3869 43.8754 14.8941 44.0464 15.3749L34.1264 16.5856L17.9451 0.32C17.7466 0.117467 17.4756 0.00226667 17.192 0C16.912 0.00146667 16.6439 0.112933 16.4454 0.3104L13.4203 3.3184C13.0039 3.73493 13.0039 4.41013 13.4203 4.82667L15.048 6.47787C8.74189 18.0737 10.7902 32.4335 20.087 41.8037C20.1723 41.8853 20.2712 41.9513 20.3792 41.9989C20.312 42.3599 20.277 42.7261 20.2747 43.0933V55.4667H7.47469C4.53069 55.4701 2.14482 57.856 2.14136 60.8V62.9333C2.14136 63.5224 2.61896 64 3.20802 64H52.2747C52.8638 64 53.3414 63.5224 53.3414 62.9333V60.8C53.3379 57.856 50.952 55.4701 48.008 55.4667H35.208V49.9829C37.2132 50.4035 39.2563 50.6179 41.3051 50.6229C46.2214 50.6176 51.0594 49.392 55.3851 47.056L57.0214 48.7019C57.2199 48.9044 57.4908 49.0196 57.7744 49.0219C58.0544 49.0204 58.3226 48.9089 58.5211 48.7115L61.5462 45.7035C61.9626 45.2869 61.9626 44.6117 61.5462 44.1952ZM46.5595 12.4661C47.3948 11.6352 48.7456 11.6389 49.5764 12.4743C50.4074 13.3096 50.4036 14.6604 49.5683 15.4912C49.1684 15.8889 48.6274 16.1121 48.0634 16.112H48.057C46.8788 16.1059 45.9286 15.1459 45.9347 13.9676C45.9376 13.4036 46.1638 12.8639 46.5636 12.4661H46.5595ZM44.0486 19.4752L42.8518 25.3664L40.5008 23.0016L44.0486 19.4752ZM42.8368 17.6715L38.9968 21.4891L36.0262 18.5024L42.8368 17.6715ZM48.008 57.6C49.7754 57.6 51.208 59.0327 51.208 60.8V61.8667H4.27469V60.8C4.27469 59.0327 5.70736 57.6 7.47469 57.6H48.008ZM33.0747 53.3333V55.4667H22.408V53.3333H33.0747ZM22.408 51.2V43.0933C22.408 40.5056 24.8006 38.4 27.7414 38.4C30.6822 38.4 33.0747 40.5056 33.0747 43.0933V51.2H22.408ZM35.208 47.808V43.0933C35.208 39.3291 31.8587 36.2667 27.7414 36.2667C25.0792 36.2259 22.5899 37.5809 21.1792 39.8389C13.0638 31.2913 11.2363 18.5485 16.622 8.06467L53.8256 45.4816C48.0808 48.404 41.4954 49.2268 35.208 47.808ZM57.7862 46.4405L56.2832 44.9291L17.1814 5.59147L15.672 4.07893L17.1814 2.57493L33.0512 18.5344C33.0587 18.5344 33.063 18.5483 33.0704 18.5536L59.2998 44.9365L57.7862 46.4405Z"/><path d="M27.751 40.5333H27.7414C25.9741 40.5307 24.5393 41.9612 24.5366 43.7285C24.534 45.4959 25.9645 46.9307 27.7318 46.9333H27.7414C29.5088 46.936 30.9436 45.5055 30.9462 43.7381C30.9489 41.9708 29.5184 40.536 27.751 40.5333ZM28.4977 44.4896C28.2969 44.6893 28.0248 44.8011 27.7414 44.8C27.1524 44.7969 26.6773 44.3169 26.6804 43.7279C26.6818 43.4459 26.7949 43.176 26.9948 42.9771C27.1933 42.7796 27.4614 42.6681 27.7414 42.6667C28.3305 42.6697 28.8056 43.1497 28.8025 43.7388C28.801 44.0208 28.688 44.2907 28.4881 44.4896H28.4977Z"/>
    </symbol>
    <symbol id="icon-heroicons-solidmenu-3-1689" viewBox="0 0 24 24">
      <path fill-rule="evenodd" clip-rule="evenodd" d="M3.59961 6.00078C3.59961 5.68252 3.72604 5.3773 3.95108 5.15225C4.17612 4.92721 4.48135 4.80078 4.79961 4.80078H19.1996C19.5179 4.80078 19.8231 4.92721 20.0481 5.15225C20.2732 5.3773 20.3996 5.68252 20.3996 6.00078C20.3996 6.31904 20.2732 6.62427 20.0481 6.84931C19.8231 7.07435 19.5179 7.20078 19.1996 7.20078H4.79961C4.48135 7.20078 4.17612 7.07435 3.95108 6.84931C3.72604 6.62427 3.59961 6.31904 3.59961 6.00078Z"/><path fill-rule="evenodd" clip-rule="evenodd" d="M3.59961 12.0008C3.59961 11.6825 3.72604 11.3773 3.95108 11.1523C4.17612 10.9272 4.48135 10.8008 4.79961 10.8008H19.1996C19.5179 10.8008 19.8231 10.9272 20.0481 11.1523C20.2732 11.3773 20.3996 11.6825 20.3996 12.0008C20.3996 12.319 20.2732 12.6243 20.0481 12.8493C19.8231 13.0744 19.5179 13.2008 19.1996 13.2008H4.79961C4.48135 13.2008 4.17612 13.0744 3.95108 12.8493C3.72604 12.6243 3.59961 12.319 3.59961 12.0008Z"/><path fill-rule="evenodd" clip-rule="evenodd" d="M3.59961 18.0008C3.59961 17.6825 3.72604 17.3773 3.95108 17.1523C4.17612 16.9272 4.48135 16.8008 4.79961 16.8008H19.1996C19.5179 16.8008 19.8231 16.9272 20.0481 17.1523C20.2732 17.3773 20.3996 17.6825 20.3996 18.0008C20.3996 18.319 20.2732 18.6243 20.0481 18.8493C19.8231 19.0744 19.5179 19.2008 19.1996 19.2008H4.79961C4.48135 19.2008 4.17612 19.0744 3.95108 18.8493C3.72604 18.6243 3.59961 18.319 3.59961 18.0008Z"/>
    </symbol>
  </defs>
</svg>
